<svg width="101" height="16" viewBox="0 0 101 16" fill="none" xmlns="http://www.w3.org/2000/svg">
<path d="M1.04 15.1162C0.906667 15.1162 0.793333 15.0695 0.7 14.9762C0.606667 14.8829 0.56 14.7695 0.56 14.6362V1.59621C0.56 1.44954 0.606667 1.33621 0.7 1.25621C0.793333 1.16288 0.906667 1.11621 1.04 1.11621H2.92C3.06667 1.11621 3.18 1.16288 3.26 1.25621C3.35333 1.33621 3.4 1.44954 3.4 1.59621V12.7162H9.74C9.88667 12.7162 10.0067 12.7629 10.1 12.8562C10.1933 12.9495 10.24 13.0629 10.24 13.1962V14.6362C10.24 14.7695 10.1933 14.8829 10.1 14.9762C10.0067 15.0695 9.88667 15.1162 9.74 15.1162H1.04ZM14.9611 15.3162C14.2811 15.3162 13.6544 15.1829 13.0811 14.9162C12.5211 14.6362 12.0744 14.2629 11.7411 13.7962C11.4211 13.3295 11.2611 12.8162 11.2611 12.2562C11.2611 11.3495 11.6278 10.6162 12.3611 10.0562C13.0944 9.49621 14.1011 9.11621 15.3811 8.91621L18.1211 8.51621V8.09621C18.1211 7.52288 17.9744 7.08954 17.6811 6.79621C17.3878 6.50288 16.9211 6.35621 16.2811 6.35621C15.8411 6.35621 15.4878 6.43621 15.2211 6.59621C14.9544 6.75621 14.7344 6.92288 14.5611 7.09621C14.4011 7.25621 14.2944 7.36288 14.2411 7.41621C14.1878 7.57621 14.0878 7.65621 13.9411 7.65621H12.3811C12.2611 7.65621 12.1544 7.61621 12.0611 7.53621C11.9811 7.45621 11.9411 7.34954 11.9411 7.21621C11.9544 6.88288 12.1144 6.50954 12.4211 6.09621C12.7411 5.66954 13.2278 5.30288 13.8811 4.99621C14.5344 4.67621 15.3411 4.51621 16.3011 4.51621C17.8744 4.51621 19.0211 4.86954 19.7411 5.57621C20.4611 6.28288 20.8211 7.20954 20.8211 8.35621V14.6362C20.8211 14.7695 20.7744 14.8829 20.6811 14.9762C20.6011 15.0695 20.4878 15.1162 20.3411 15.1162H18.6811C18.5478 15.1162 18.4344 15.0695 18.3411 14.9762C18.2478 14.8829 18.2011 14.7695 18.2011 14.6362V13.8562C17.9078 14.2829 17.4944 14.6362 16.9611 14.9162C16.4278 15.1829 15.7611 15.3162 14.9611 15.3162ZM15.6411 13.3962C16.3744 13.3962 16.9744 13.1562 17.4411 12.6762C17.9078 12.1962 18.1411 11.5029 18.1411 10.5962V10.1962L16.1411 10.5162C14.6078 10.7562 13.8411 11.2695 13.8411 12.0562C13.8411 12.4829 14.0144 12.8162 14.3611 13.0562C14.7211 13.2829 15.1478 13.3962 15.6411 13.3962ZM27.3464 15.3162C26.3331 15.3162 25.4864 15.1629 24.8064 14.8562C24.1264 14.5495 23.6197 14.1962 23.2864 13.7962C22.9664 13.3829 22.8064 13.0295 22.8064 12.7362C22.8064 12.6029 22.8464 12.4962 22.9264 12.4162C23.0197 12.3362 23.1264 12.2962 23.2464 12.2962H24.8864C24.9931 12.2962 25.0864 12.3495 25.1664 12.4562C25.2331 12.5095 25.3797 12.6362 25.6064 12.8362C25.8464 13.0362 26.1131 13.1962 26.4064 13.3162C26.7131 13.4229 27.0464 13.4762 27.4064 13.4762C27.9397 13.4762 28.3731 13.3762 28.7064 13.1762C29.0397 12.9629 29.2064 12.6629 29.2064 12.2762C29.2064 12.0095 29.1264 11.7962 28.9664 11.6362C28.8197 11.4629 28.5464 11.3095 28.1464 11.1762C27.7597 11.0295 27.1731 10.8695 26.3864 10.6962C25.2531 10.4562 24.4131 10.0895 23.8664 9.59621C23.3331 9.10288 23.0664 8.44954 23.0664 7.63621C23.0664 7.10288 23.2264 6.60288 23.5464 6.13621C23.8664 5.65621 24.3397 5.26954 24.9664 4.97621C25.6064 4.66954 26.3664 4.51621 27.2464 4.51621C28.1531 4.51621 28.9331 4.66288 29.5864 4.95621C30.2397 5.23621 30.7331 5.57621 31.0664 5.97621C31.4131 6.37621 31.5864 6.72954 31.5864 7.03621C31.5864 7.15621 31.5397 7.26288 31.4464 7.35621C31.3664 7.43621 31.2664 7.47621 31.1464 7.47621H29.6464C29.4997 7.47621 29.3864 7.42288 29.3064 7.31621C29.2131 7.24954 29.0597 7.12954 28.8464 6.95621C28.6464 6.76954 28.4197 6.62288 28.1664 6.51621C27.9131 6.40954 27.6064 6.35621 27.2464 6.35621C26.7531 6.35621 26.3731 6.46288 26.1064 6.67621C25.8397 6.88954 25.7064 7.16954 25.7064 7.51621C25.7064 7.75621 25.7664 7.95621 25.8864 8.11621C26.0197 8.27621 26.2797 8.42954 26.6664 8.57621C27.0531 8.70954 27.6331 8.84954 28.4064 8.99621C30.8064 9.46288 32.0064 10.5095 32.0064 12.1362C32.0064 13.0829 31.5931 13.8495 30.7664 14.4362C29.9531 15.0229 28.8131 15.3162 27.3464 15.3162ZM34.5505 15.1162C34.4171 15.1162 34.3038 15.0695 34.2105 14.9762C34.1171 14.8829 34.0705 14.7695 34.0705 14.6362V1.39621C34.0705 1.24954 34.1171 1.13621 34.2105 1.05621C34.3038 0.962877 34.4171 0.91621 34.5505 0.91621H36.2305C36.3771 0.91621 36.4905 0.962877 36.5705 1.05621C36.6638 1.13621 36.7105 1.24954 36.7105 1.39621V14.6362C36.7105 14.7695 36.6638 14.8829 36.5705 14.9762C36.4905 15.0695 36.3771 15.1162 36.2305 15.1162H34.5505ZM43.863 15.3162C42.3696 15.3162 41.183 14.8895 40.303 14.0362C39.4363 13.1829 38.9763 11.9695 38.923 10.3962L38.903 9.89621C38.903 8.22954 39.3363 6.91621 40.203 5.95621C41.083 4.99621 42.2963 4.51621 43.843 4.51621C45.4296 4.51621 46.6496 4.99621 47.503 5.95621C48.3696 6.91621 48.803 8.19621 48.803 9.79621V10.2162C48.803 10.3495 48.7563 10.4629 48.663 10.5562C48.5696 10.6495 48.4496 10.6962 48.303 10.6962H41.663V10.8562C41.6896 11.6029 41.8896 12.2229 42.263 12.7162C42.6496 13.1962 43.1763 13.4362 43.843 13.4362C44.603 13.4362 45.223 13.1295 45.703 12.5162C45.823 12.3695 45.9163 12.2829 45.983 12.2562C46.0496 12.2162 46.163 12.1962 46.323 12.1962H48.083C48.203 12.1962 48.303 12.2295 48.383 12.2962C48.4763 12.3629 48.523 12.4562 48.523 12.5762C48.523 12.8962 48.3296 13.2762 47.943 13.7162C47.5696 14.1429 47.0296 14.5162 46.323 14.8362C45.6163 15.1562 44.7963 15.3162 43.863 15.3162ZM46.043 8.99621V8.95621C46.043 8.16954 45.843 7.54288 45.443 7.07621C45.0563 6.59621 44.523 6.35621 43.843 6.35621C43.163 6.35621 42.6296 6.59621 42.243 7.07621C41.8563 7.54288 41.663 8.16954 41.663 8.95621V8.99621H46.043ZM54.8855 15.3162C53.8721 15.3162 53.0255 15.1629 52.3455 14.8562C51.6655 14.5495 51.1588 14.1962 50.8255 13.7962C50.5055 13.3829 50.3455 13.0295 50.3455 12.7362C50.3455 12.6029 50.3855 12.4962 50.4655 12.4162C50.5588 12.3362 50.6655 12.2962 50.7855 12.2962H52.4255C52.5321 12.2962 52.6255 12.3495 52.7055 12.4562C52.7721 12.5095 52.9188 12.6362 53.1455 12.8362C53.3855 13.0362 53.6521 13.1962 53.9455 13.3162C54.2521 13.4229 54.5855 13.4762 54.9455 13.4762C55.4788 13.4762 55.9121 13.3762 56.2455 13.1762C56.5788 12.9629 56.7455 12.6629 56.7455 12.2762C56.7455 12.0095 56.6655 11.7962 56.5055 11.6362C56.3588 11.4629 56.0855 11.3095 55.6855 11.1762C55.2988 11.0295 54.7121 10.8695 53.9255 10.6962C52.7921 10.4562 51.9521 10.0895 51.4055 9.59621C50.8721 9.10288 50.6055 8.44954 50.6055 7.63621C50.6055 7.10288 50.7655 6.60288 51.0855 6.13621C51.4055 5.65621 51.8788 5.26954 52.5055 4.97621C53.1455 4.66954 53.9055 4.51621 54.7855 4.51621C55.6921 4.51621 56.4721 4.66288 57.1255 4.95621C57.7788 5.23621 58.2721 5.57621 58.6055 5.97621C58.9521 6.37621 59.1255 6.72954 59.1255 7.03621C59.1255 7.15621 59.0788 7.26288 58.9855 7.35621C58.9055 7.43621 58.8055 7.47621 58.6855 7.47621H57.1855C57.0388 7.47621 56.9255 7.42288 56.8455 7.31621C56.7521 7.24954 56.5988 7.12954 56.3855 6.95621C56.1855 6.76954 55.9588 6.62288 55.7055 6.51621C55.4521 6.40954 55.1455 6.35621 54.7855 6.35621C54.2921 6.35621 53.9121 6.46288 53.6455 6.67621C53.3788 6.88954 53.2455 7.16954 53.2455 7.51621C53.2455 7.75621 53.3055 7.95621 53.4255 8.11621C53.5588 8.27621 53.8188 8.42954 54.2055 8.57621C54.5921 8.70954 55.1721 8.84954 55.9455 8.99621C58.3455 9.46288 59.5455 10.5095 59.5455 12.1362C59.5455 13.0829 59.1321 13.8495 58.3055 14.4362C57.4921 15.0229 56.3521 15.3162 54.8855 15.3162ZM65.6295 15.1162C65.4029 15.1162 65.2162 15.0629 65.0695 14.9562C64.9362 14.8362 64.8429 14.6895 64.7895 14.5162L60.7495 1.71621L60.7095 1.53621C60.7095 1.42954 60.7495 1.33621 60.8295 1.25621C60.9229 1.16288 61.0295 1.11621 61.1495 1.11621H63.7695C63.9695 1.11621 64.1295 1.17621 64.2495 1.29621C64.3829 1.40288 64.4695 1.52288 64.5095 1.65621L67.2295 10.6962L69.9695 1.65621C70.0095 1.50954 70.0895 1.38288 70.2095 1.27621C70.3429 1.16954 70.5095 1.11621 70.7095 1.11621H73.3295C73.4495 1.11621 73.5495 1.16288 73.6295 1.25621C73.7095 1.33621 73.7495 1.42954 73.7495 1.53621C73.7495 1.60288 73.7429 1.66288 73.7295 1.71621L69.6695 14.5162C69.6295 14.6895 69.5362 14.8362 69.3895 14.9562C69.2562 15.0629 69.0762 15.1162 68.8495 15.1162H65.6295ZM76.0748 15.1162C75.9415 15.1162 75.8215 15.0695 75.7148 14.9762C75.6215 14.8695 75.5748 14.7495 75.5748 14.6162V1.63621C75.5748 1.48954 75.6215 1.36954 75.7148 1.27621C75.8082 1.16954 75.9282 1.11621 76.0748 1.11621H81.7348C83.4682 1.11621 84.8282 1.50954 85.8148 2.29621C86.8015 3.08288 87.2948 4.23621 87.2948 5.75621C87.2948 7.27621 86.8015 8.41621 85.8148 9.17621C84.8282 9.92288 83.4682 10.2962 81.7348 10.2962H79.4548V14.6162C79.4548 14.7495 79.4082 14.8695 79.3148 14.9762C79.2215 15.0695 79.1015 15.1162 78.9548 15.1162H76.0748ZM81.6348 7.43621C82.1815 7.43621 82.6082 7.29621 82.9148 7.01621C83.2348 6.72288 83.3948 6.29621 83.3948 5.73621C83.3948 5.21621 83.2482 4.79621 82.9548 4.47621C82.6748 4.15621 82.2348 3.99621 81.6348 3.99621H79.3948V7.43621H81.6348ZM89.6491 15.1162C89.5157 15.1162 89.3957 15.0695 89.2891 14.9762C89.1957 14.8695 89.1491 14.7495 89.1491 14.6162V1.63621C89.1491 1.48954 89.1957 1.36954 89.2891 1.27621C89.3824 1.16954 89.5024 1.11621 89.6491 1.11621H91.9091C92.2157 1.11621 92.4424 1.24288 92.5891 1.49621L97.3091 8.95621V1.63621C97.3091 1.48954 97.3557 1.36954 97.4491 1.27621C97.5424 1.16954 97.6624 1.11621 97.8091 1.11621H100.349C100.496 1.11621 100.616 1.16954 100.709 1.27621C100.802 1.36954 100.849 1.48954 100.849 1.63621V14.5962C100.849 14.7429 100.802 14.8695 100.709 14.9762C100.616 15.0695 100.496 15.1162 100.349 15.1162H98.0891C97.7824 15.1162 97.5557 14.9895 97.4091 14.7362L92.7091 7.57621V14.6162C92.7091 14.7629 92.6557 14.8829 92.5491 14.9762C92.4557 15.0695 92.3357 15.1162 92.1891 15.1162H89.6491Z" fill="#0B132A"/>
</svg>
