<svg width="528" height="47" viewBox="0 0 528 47" fill="none" xmlns="http://www.w3.org/2000/svg">
<path d="M1.76 12.766C1.65333 12.766 1.568 12.734 1.504 12.67C1.44 12.5953 1.408 12.5047 1.408 12.398V1.94999C1.408 1.83266 1.44 1.74199 1.504 1.67799C1.568 1.60332 1.65333 1.56599 1.76 1.56599H5.808C7.01333 1.56599 7.95733 1.85932 8.64 2.44599C9.33333 3.02199 9.68 3.86466 9.68 4.97399C9.68 6.08332 9.33333 6.92599 8.64 7.50199C7.95733 8.07799 7.01333 8.36599 5.808 8.36599H2.928V12.398C2.928 12.5047 2.89067 12.5953 2.816 12.67C2.752 12.734 2.66667 12.766 2.56 12.766H1.76ZM5.728 7.06999C7.33867 7.06999 8.144 6.37132 8.144 4.97399C8.144 4.29132 7.94133 3.76866 7.536 3.40599C7.14133 3.04332 6.53867 2.86199 5.728 2.86199H2.928V7.06999H5.728ZM11.818 12.766C11.7113 12.766 11.6207 12.734 11.546 12.67C11.482 12.5953 11.45 12.5047 11.45 12.398V4.82999C11.45 4.72332 11.482 4.63266 11.546 4.55799C11.6207 4.48332 11.7113 4.44599 11.818 4.44599H12.49C12.6073 4.44599 12.698 4.48332 12.762 4.55799C12.8367 4.62199 12.874 4.71266 12.874 4.82999V5.53399C13.3113 4.80866 14.0527 4.44599 15.098 4.44599H15.722C15.8393 4.44599 15.93 4.47799 15.994 4.54199C16.058 4.60599 16.09 4.69666 16.09 4.81399V5.40599C16.09 5.51266 16.058 5.60332 15.994 5.67799C15.93 5.74199 15.8393 5.77399 15.722 5.77399H14.81C14.2233 5.77399 13.7593 5.94466 13.418 6.28599C13.0873 6.62732 12.922 7.09132 12.922 7.67799V12.398C12.922 12.5047 12.8847 12.5953 12.81 12.67C12.7353 12.734 12.6447 12.766 12.538 12.766H11.818ZM20.6854 12.926C19.512 12.926 18.6054 12.5953 17.9654 11.934C17.336 11.2727 17 10.3927 16.9574 9.29399L16.9414 8.60599L16.9574 7.91799C17 6.81932 17.3414 5.93932 17.9814 5.27799C18.632 4.61666 19.5334 4.28599 20.6854 4.28599C21.8374 4.28599 22.7334 4.61666 23.3734 5.27799C24.024 5.93932 24.3707 6.81932 24.4134 7.91799C24.4347 8.15266 24.4454 8.38199 24.4454 8.60599C24.4454 8.82999 24.4347 9.05932 24.4134 9.29399C24.3707 10.3927 24.0294 11.2727 23.3894 11.934C22.76 12.5953 21.8587 12.926 20.6854 12.926ZM20.6854 11.726C21.368 11.726 21.9067 11.5127 22.3014 11.086C22.7067 10.6487 22.9254 10.0247 22.9574 9.21399C22.968 9.10732 22.9734 8.90466 22.9734 8.60599C22.9734 8.30732 22.968 8.10466 22.9574 7.99799C22.9254 7.18732 22.7067 6.56866 22.3014 6.14199C21.9067 5.70466 21.368 5.48599 20.6854 5.48599C20.0027 5.48599 19.4587 5.70466 19.0534 6.14199C18.6587 6.56866 18.4454 7.18732 18.4134 7.99799L18.3974 8.60599L18.4134 9.21399C18.4454 10.0247 18.6587 10.6487 19.0534 11.086C19.4587 11.5127 20.0027 11.726 20.6854 11.726ZM29.0648 12.766C28.7874 12.766 28.5901 12.6327 28.4728 12.366L25.4967 4.94199C25.4861 4.90999 25.4808 4.85666 25.4808 4.78199C25.4808 4.68599 25.5128 4.60599 25.5768 4.54199C25.6408 4.47799 25.7154 4.44599 25.8008 4.44599H26.5368C26.7074 4.44599 26.8354 4.53132 26.9208 4.70199L29.3848 11.086L31.8488 4.70199C31.8701 4.63799 31.9128 4.57932 31.9768 4.52599C32.0514 4.47266 32.1368 4.44599 32.2328 4.44599H32.9688C33.0541 4.44599 33.1288 4.47799 33.1927 4.54199C33.2568 4.60599 33.2888 4.68599 33.2888 4.78199L33.2568 4.94199L30.2968 12.366C30.1794 12.6327 29.9821 12.766 29.7048 12.766H29.0648ZM35.2369 2.87799C35.1302 2.87799 35.0395 2.84599 34.9649 2.78199C34.9009 2.70732 34.8689 2.61666 34.8689 2.50999V1.67799C34.8689 1.57132 34.9009 1.48066 34.9649 1.40599C35.0395 1.33132 35.1302 1.29399 35.2369 1.29399H36.1809C36.2875 1.29399 36.3782 1.33132 36.4529 1.40599C36.5275 1.48066 36.5649 1.57132 36.5649 1.67799V2.50999C36.5649 2.61666 36.5275 2.70732 36.4529 2.78199C36.3782 2.84599 36.2875 2.87799 36.1809 2.87799H35.2369ZM35.3649 12.766C35.2582 12.766 35.1675 12.734 35.0929 12.67C35.0289 12.5953 34.9969 12.5047 34.9969 12.398V4.81399C34.9969 4.70732 35.0289 4.62199 35.0929 4.55799C35.1675 4.48332 35.2582 4.44599 35.3649 4.44599H36.0689C36.1755 4.44599 36.2609 4.48332 36.3249 4.55799C36.3995 4.62199 36.4369 4.70732 36.4369 4.81399V12.398C36.4369 12.5047 36.3995 12.5953 36.3249 12.67C36.2609 12.734 36.1755 12.766 36.0689 12.766H35.3649ZM41.8806 12.926C40.7606 12.926 39.918 12.5633 39.3526 11.838C38.798 11.1127 38.4993 10.1953 38.4566 9.08599L38.4406 8.60599L38.4566 8.12599C38.4993 7.02732 38.8033 6.11532 39.3686 5.38999C39.934 4.65399 40.7713 4.28599 41.8806 4.28599C42.99 4.28599 43.854 4.68066 44.4726 5.46999V1.77399C44.4726 1.66732 44.5046 1.58199 44.5686 1.51799C44.6433 1.44332 44.734 1.40599 44.8406 1.40599H45.5606C45.6673 1.40599 45.7526 1.44332 45.8166 1.51799C45.8913 1.58199 45.9286 1.66732 45.9286 1.77399V12.398C45.9286 12.5047 45.8913 12.5953 45.8166 12.67C45.7526 12.734 45.6673 12.766 45.5606 12.766H44.8726C44.766 12.766 44.6806 12.734 44.6166 12.67C44.5526 12.5953 44.5206 12.5047 44.5206 12.398V11.71C43.9126 12.5207 43.0326 12.926 41.8806 12.926ZM42.1846 11.678C42.9313 11.678 43.4913 11.4327 43.8646 10.942C44.238 10.4407 44.4406 9.84866 44.4726 9.16599C44.4833 9.04866 44.4886 8.84599 44.4886 8.55799C44.4886 8.25932 44.4833 8.05132 44.4726 7.93399C44.4513 7.28332 44.2433 6.72332 43.8486 6.25399C43.4646 5.77399 42.91 5.53399 42.1846 5.53399C41.4166 5.53399 40.8566 5.77399 40.5046 6.25399C40.1526 6.73399 39.9606 7.36332 39.9286 8.14199L39.9126 8.60599C39.9126 10.654 40.67 11.678 42.1846 11.678ZM51.6366 12.926C50.5486 12.926 49.6793 12.59 49.0286 11.918C48.378 11.2353 48.0206 10.3073 47.9566 9.13399L47.9406 8.58999L47.9566 8.06199C48.0206 6.90999 48.378 5.99266 49.0286 5.30999C49.6793 4.62732 50.5486 4.28599 51.6366 4.28599C52.81 4.28599 53.7166 4.65932 54.3566 5.40599C55.0073 6.15266 55.3326 7.16599 55.3326 8.44599V8.73399C55.3326 8.84066 55.2953 8.93132 55.2206 9.00599C55.1566 9.06999 55.0713 9.10199 54.9646 9.10199H49.4126V9.24599C49.4446 9.93932 49.658 10.5313 50.0526 11.022C50.4473 11.5127 50.97 11.758 51.6206 11.758C52.122 11.758 52.5273 11.662 52.8366 11.47C53.1566 11.2673 53.3966 11.0593 53.5566 10.846C53.6526 10.718 53.7273 10.6433 53.7806 10.622C53.834 10.59 53.9246 10.574 54.0526 10.574H54.7566C54.8526 10.574 54.9326 10.6007 54.9966 10.654C55.0713 10.7073 55.1086 10.7767 55.1086 10.862C55.1086 11.0967 54.9646 11.3793 54.6766 11.71C54.3886 12.0407 53.978 12.3287 53.4446 12.574C52.922 12.8087 52.3193 12.926 51.6366 12.926ZM53.8766 8.01399V7.96599C53.8766 7.21932 53.674 6.61132 53.2686 6.14199C52.8633 5.67266 52.3193 5.43799 51.6366 5.43799C50.9433 5.43799 50.3993 5.67266 50.0046 6.14199C49.61 6.61132 49.4126 7.21932 49.4126 7.96599V8.01399H53.8766ZM63.5196 12.926C62.997 12.926 62.5116 12.8193 62.0636 12.606C61.6263 12.3927 61.2743 12.1047 61.0076 11.742C60.7516 11.3687 60.6236 10.958 60.6236 10.51C60.6236 9.80599 60.9116 9.22999 61.4876 8.78199C62.0636 8.33399 62.8476 8.03532 63.8396 7.88599L66.2396 7.54999V7.08599C66.2396 5.98732 65.605 5.43799 64.3356 5.43799C63.845 5.43799 63.4503 5.53932 63.1516 5.74199C62.853 5.93399 62.6343 6.16332 62.4956 6.42999C62.453 6.53666 62.405 6.61132 62.3516 6.65399C62.309 6.68599 62.245 6.70199 62.1596 6.70199H61.5356C61.4396 6.70199 61.3543 6.66999 61.2796 6.60599C61.2156 6.53132 61.1836 6.44599 61.1836 6.34999C61.1836 6.10466 61.2956 5.82199 61.5196 5.50199C61.7543 5.17132 62.1116 4.88866 62.5916 4.65399C63.0716 4.40866 63.6583 4.28599 64.3516 4.28599C65.5463 4.28599 66.3996 4.56332 66.9116 5.11799C67.4343 5.67266 67.6956 6.36599 67.6956 7.19799V12.398C67.6956 12.5047 67.6583 12.5953 67.5836 12.67C67.5196 12.734 67.4343 12.766 67.3276 12.766H66.6236C66.517 12.766 66.4316 12.734 66.3676 12.67C66.3036 12.5953 66.2716 12.5047 66.2716 12.398V11.694C66.037 12.046 65.6956 12.3393 65.2476 12.574C64.7996 12.8087 64.2236 12.926 63.5196 12.926ZM63.8396 11.758C64.5436 11.758 65.1196 11.5287 65.5676 11.07C66.0156 10.6113 66.2396 9.94466 66.2396 9.06999V8.62199L64.3676 8.89399C63.5996 9.00066 63.0183 9.18199 62.6236 9.43799C62.229 9.69399 62.0316 10.014 62.0316 10.398C62.0316 10.8353 62.2076 11.1713 62.5596 11.406C62.9223 11.6407 63.349 11.758 63.8396 11.758ZM74.318 12.766C74.2113 12.766 74.1207 12.734 74.046 12.67C73.982 12.5953 73.95 12.5047 73.95 12.398V4.81399C73.95 4.70732 73.982 4.62199 74.046 4.55799C74.1207 4.48332 74.2113 4.44599 74.318 4.44599H75.006C75.1233 4.44599 75.214 4.47799 75.278 4.54199C75.342 4.60599 75.374 4.69666 75.374 4.81399V5.51799C75.694 5.12332 76.062 4.81932 76.478 4.60599C76.9047 4.39266 77.4327 4.28599 78.062 4.28599C79.086 4.28599 79.8807 4.61666 80.446 5.27799C81.0113 5.92866 81.294 6.79266 81.294 7.86999V12.398C81.294 12.5047 81.2567 12.5953 81.182 12.67C81.118 12.734 81.0327 12.766 80.926 12.766H80.19C80.0833 12.766 79.9927 12.734 79.918 12.67C79.854 12.5953 79.822 12.5047 79.822 12.398V7.96599C79.822 7.19799 79.6353 6.60066 79.262 6.17399C78.8887 5.74732 78.3553 5.53399 77.662 5.53399C76.9793 5.53399 76.4353 5.75266 76.03 6.18999C75.6247 6.61666 75.422 7.20866 75.422 7.96599V12.398C75.422 12.5047 75.3847 12.5953 75.31 12.67C75.246 12.734 75.1607 12.766 75.054 12.766H74.318ZM86.9023 12.926C85.8143 12.926 84.9449 12.59 84.2943 11.918C83.6436 11.2353 83.2863 10.3073 83.2223 9.13399L83.2063 8.58999L83.2223 8.06199C83.2863 6.90999 83.6436 5.99266 84.2943 5.30999C84.9449 4.62732 85.8143 4.28599 86.9023 4.28599C88.0756 4.28599 88.9823 4.65932 89.6223 5.40599C90.2729 6.15266 90.5983 7.16599 90.5983 8.44599V8.73399C90.5983 8.84066 90.5609 8.93132 90.4862 9.00599C90.4223 9.06999 90.3369 9.10199 90.2303 9.10199H84.6783V9.24599C84.7103 9.93932 84.9236 10.5313 85.3183 11.022C85.7129 11.5127 86.2356 11.758 86.8863 11.758C87.3876 11.758 87.7929 11.662 88.1023 11.47C88.4223 11.2673 88.6623 11.0593 88.8223 10.846C88.9183 10.718 88.9929 10.6433 89.0463 10.622C89.0996 10.59 89.1903 10.574 89.3183 10.574H90.0223C90.1183 10.574 90.1983 10.6007 90.2623 10.654C90.3369 10.7073 90.3743 10.7767 90.3743 10.862C90.3743 11.0967 90.2303 11.3793 89.9423 11.71C89.6543 12.0407 89.2436 12.3287 88.7103 12.574C88.1876 12.8087 87.5849 12.926 86.9023 12.926ZM89.1423 8.01399V7.96599C89.1423 7.21932 88.9396 6.61132 88.5343 6.14199C88.1289 5.67266 87.5849 5.43799 86.9023 5.43799C86.2089 5.43799 85.6649 5.67266 85.2703 6.14199C84.8756 6.61132 84.6783 7.21932 84.6783 7.96599V8.01399H89.1423ZM95.6969 12.766C94.0435 12.766 93.2169 11.8327 93.2169 9.96599V5.67799H91.9529C91.8462 5.67799 91.7609 5.64599 91.6969 5.58199C91.6329 5.51799 91.6009 5.43266 91.6009 5.32599V4.81399C91.6009 4.70732 91.6329 4.62199 91.6969 4.55799C91.7609 4.48332 91.8462 4.44599 91.9529 4.44599H93.2169V1.77399C93.2169 1.66732 93.2489 1.58199 93.3129 1.51799C93.3769 1.44332 93.4622 1.40599 93.5689 1.40599H94.2729C94.3795 1.40599 94.4649 1.44332 94.5289 1.51799C94.6035 1.58199 94.6409 1.66732 94.6409 1.77399V4.44599H96.6249C96.7315 4.44599 96.8169 4.48332 96.8809 4.55799C96.9555 4.62199 96.9929 4.70732 96.9929 4.81399V5.32599C96.9929 5.43266 96.9555 5.51799 96.8809 5.58199C96.8169 5.64599 96.7315 5.67799 96.6249 5.67799H94.6409V9.85399C94.6409 10.398 94.7262 10.8087 94.8969 11.086C95.0782 11.3633 95.3822 11.502 95.8089 11.502H96.7849C96.8915 11.502 96.9769 11.5393 97.0409 11.614C97.1049 11.678 97.1369 11.7633 97.1369 11.87V12.398C97.1369 12.5047 97.1049 12.5953 97.0409 12.67C96.9769 12.734 96.8915 12.766 96.7849 12.766H95.6969ZM100.908 12.766C100.759 12.766 100.647 12.734 100.572 12.67C100.497 12.606 100.439 12.5047 100.396 12.366L98.124 4.94199L98.092 4.78199C98.092 4.68599 98.124 4.60599 98.188 4.54199C98.252 4.47799 98.332 4.44599 98.428 4.44599H99.084C99.1907 4.44599 99.276 4.47799 99.34 4.54199C99.4147 4.59532 99.4573 4.64866 99.468 4.70199L101.276 10.814L103.196 4.78199C103.217 4.69666 103.265 4.62199 103.34 4.55799C103.415 4.48332 103.516 4.44599 103.644 4.44599H104.156C104.284 4.44599 104.385 4.48332 104.46 4.55799C104.535 4.62199 104.583 4.69666 104.604 4.78199L106.524 10.814L108.332 4.70199C108.343 4.64866 108.38 4.59532 108.444 4.54199C108.519 4.47799 108.609 4.44599 108.716 4.44599H109.372C109.468 4.44599 109.548 4.47799 109.612 4.54199C109.676 4.60599 109.708 4.68599 109.708 4.78199L109.676 4.94199L107.404 12.366C107.361 12.5047 107.303 12.606 107.228 12.67C107.153 12.734 107.041 12.766 106.892 12.766H106.316C106.039 12.766 105.857 12.6327 105.772 12.366L103.9 6.57399L102.028 12.366C101.943 12.6327 101.761 12.766 101.484 12.766H100.908ZM114.654 12.926C113.481 12.926 112.574 12.5953 111.934 11.934C111.305 11.2727 110.969 10.3927 110.926 9.29399L110.91 8.60599L110.926 7.91799C110.969 6.81932 111.31 5.93932 111.95 5.27799C112.601 4.61666 113.502 4.28599 114.654 4.28599C115.806 4.28599 116.702 4.61666 117.342 5.27799C117.993 5.93932 118.339 6.81932 118.382 7.91799C118.403 8.15266 118.414 8.38199 118.414 8.60599C118.414 8.82999 118.403 9.05932 118.382 9.29399C118.339 10.3927 117.998 11.2727 117.358 11.934C116.729 12.5953 115.827 12.926 114.654 12.926ZM114.654 11.726C115.337 11.726 115.875 11.5127 116.27 11.086C116.675 10.6487 116.894 10.0247 116.926 9.21399C116.937 9.10732 116.942 8.90466 116.942 8.60599C116.942 8.30732 116.937 8.10466 116.926 7.99799C116.894 7.18732 116.675 6.56866 116.27 6.14199C115.875 5.70466 115.337 5.48599 114.654 5.48599C113.971 5.48599 113.427 5.70466 113.022 6.14199C112.627 6.56866 112.414 7.18732 112.382 7.99799L112.366 8.60599L112.382 9.21399C112.414 10.0247 112.627 10.6487 113.022 11.086C113.427 11.5127 113.971 11.726 114.654 11.726ZM120.802 12.766C120.696 12.766 120.605 12.734 120.53 12.67C120.466 12.5953 120.434 12.5047 120.434 12.398V4.82999C120.434 4.72332 120.466 4.63266 120.53 4.55799C120.605 4.48332 120.696 4.44599 120.802 4.44599H121.474C121.592 4.44599 121.682 4.48332 121.746 4.55799C121.821 4.62199 121.858 4.71266 121.858 4.82999V5.53399C122.296 4.80866 123.037 4.44599 124.082 4.44599H124.706C124.824 4.44599 124.914 4.47799 124.978 4.54199C125.042 4.60599 125.074 4.69666 125.074 4.81399V5.40599C125.074 5.51266 125.042 5.60332 124.978 5.67799C124.914 5.74199 124.824 5.77399 124.706 5.77399H123.794C123.208 5.77399 122.744 5.94466 122.402 6.28599C122.072 6.62732 121.906 7.09132 121.906 7.67799V12.398C121.906 12.5047 121.869 12.5953 121.794 12.67C121.72 12.734 121.629 12.766 121.522 12.766H120.802ZM126.834 12.766C126.727 12.766 126.637 12.734 126.562 12.67C126.498 12.5953 126.466 12.5047 126.466 12.398V1.77399C126.466 1.65666 126.498 1.56599 126.562 1.50199C126.637 1.43799 126.727 1.40599 126.834 1.40599H127.522C127.629 1.40599 127.714 1.44332 127.778 1.51799C127.853 1.58199 127.89 1.66732 127.89 1.77399V7.35799L131.09 4.71799C131.25 4.60066 131.362 4.52599 131.426 4.49399C131.49 4.46199 131.591 4.44599 131.73 4.44599H132.53C132.626 4.44599 132.701 4.47799 132.754 4.54199C132.818 4.59532 132.85 4.67532 132.85 4.78199C132.85 4.87799 132.791 4.97932 132.674 5.08599L128.93 8.15799L133.074 12.126C133.191 12.2433 133.25 12.3447 133.25 12.43C133.25 12.526 133.218 12.606 133.154 12.67C133.101 12.734 133.026 12.766 132.93 12.766H132.146C131.986 12.766 131.869 12.75 131.794 12.718C131.73 12.686 131.634 12.6113 131.506 12.494L127.89 9.06999V12.398C127.89 12.5047 127.853 12.5953 127.778 12.67C127.714 12.734 127.629 12.766 127.522 12.766H126.834ZM139.338 12.766C139.231 12.766 139.14 12.734 139.066 12.67C139.002 12.5953 138.97 12.5047 138.97 12.398V5.67799H137.594C137.487 5.67799 137.396 5.64599 137.322 5.58199C137.258 5.51799 137.226 5.43266 137.226 5.32599V4.81399C137.226 4.70732 137.258 4.62199 137.322 4.55799C137.396 4.48332 137.487 4.44599 137.594 4.44599H138.97V3.64599C138.97 2.78199 139.178 2.11532 139.594 1.64599C140.02 1.16599 140.714 0.925991 141.674 0.925991H142.618C142.724 0.925991 142.81 0.963324 142.874 1.03799C142.948 1.10199 142.986 1.18732 142.986 1.29399V1.80599C142.986 1.91266 142.948 1.99799 142.874 2.06199C142.81 2.12599 142.724 2.15799 142.618 2.15799H141.706C141.215 2.15799 140.874 2.28599 140.682 2.54199C140.49 2.79799 140.394 3.19266 140.394 3.72599V4.44599H142.458C142.564 4.44599 142.65 4.48332 142.714 4.55799C142.788 4.62199 142.826 4.70732 142.826 4.81399V5.32599C142.826 5.43266 142.788 5.51799 142.714 5.58199C142.65 5.64599 142.564 5.67799 142.458 5.67799H140.394V12.398C140.394 12.5047 140.356 12.5953 140.282 12.67C140.218 12.734 140.132 12.766 140.026 12.766H139.338ZM147.467 12.926C146.293 12.926 145.387 12.5953 144.747 11.934C144.117 11.2727 143.781 10.3927 143.739 9.29399L143.723 8.60599L143.739 7.91799C143.781 6.81932 144.123 5.93932 144.763 5.27799C145.413 4.61666 146.315 4.28599 147.467 4.28599C148.619 4.28599 149.515 4.61666 150.155 5.27799C150.805 5.93932 151.152 6.81932 151.195 7.91799C151.216 8.15266 151.227 8.38199 151.227 8.60599C151.227 8.82999 151.216 9.05932 151.195 9.29399C151.152 10.3927 150.811 11.2727 150.171 11.934C149.541 12.5953 148.64 12.926 147.467 12.926ZM147.467 11.726C148.149 11.726 148.688 11.5127 149.083 11.086C149.488 10.6487 149.707 10.0247 149.739 9.21399C149.749 9.10732 149.755 8.90466 149.755 8.60599C149.755 8.30732 149.749 8.10466 149.739 7.99799C149.707 7.18732 149.488 6.56866 149.083 6.14199C148.688 5.70466 148.149 5.48599 147.467 5.48599C146.784 5.48599 146.24 5.70466 145.835 6.14199C145.44 6.56866 145.227 7.18732 145.195 7.99799L145.179 8.60599L145.195 9.21399C145.227 10.0247 145.44 10.6487 145.835 11.086C146.24 11.5127 146.784 11.726 147.467 11.726ZM153.615 12.766C153.508 12.766 153.418 12.734 153.343 12.67C153.279 12.5953 153.247 12.5047 153.247 12.398V4.82999C153.247 4.72332 153.279 4.63266 153.343 4.55799C153.418 4.48332 153.508 4.44599 153.615 4.44599H154.287C154.404 4.44599 154.495 4.48332 154.559 4.55799C154.634 4.62199 154.671 4.71266 154.671 4.82999V5.53399C155.108 4.80866 155.85 4.44599 156.895 4.44599H157.519C157.636 4.44599 157.727 4.47799 157.791 4.54199C157.855 4.60599 157.887 4.69666 157.887 4.81399V5.40599C157.887 5.51266 157.855 5.60332 157.791 5.67799C157.727 5.74199 157.636 5.77399 157.519 5.77399H156.607C156.02 5.77399 155.556 5.94466 155.215 6.28599C154.884 6.62732 154.719 7.09132 154.719 7.67799V12.398C154.719 12.5047 154.682 12.5953 154.607 12.67C154.532 12.734 154.442 12.766 154.335 12.766H153.615ZM165.129 12.926C164.606 12.926 164.121 12.8193 163.673 12.606C163.236 12.3927 162.884 12.1047 162.617 11.742C162.361 11.3687 162.233 10.958 162.233 10.51C162.233 9.80599 162.521 9.22999 163.097 8.78199C163.673 8.33399 164.457 8.03532 165.449 7.88599L167.849 7.54999V7.08599C167.849 5.98732 167.214 5.43799 165.945 5.43799C165.454 5.43799 165.06 5.53932 164.761 5.74199C164.462 5.93399 164.244 6.16332 164.105 6.42999C164.062 6.53666 164.014 6.61132 163.961 6.65399C163.918 6.68599 163.854 6.70199 163.769 6.70199H163.145C163.049 6.70199 162.964 6.66999 162.889 6.60599C162.825 6.53132 162.793 6.44599 162.793 6.34999C162.793 6.10466 162.905 5.82199 163.129 5.50199C163.364 5.17132 163.721 4.88866 164.201 4.65399C164.681 4.40866 165.268 4.28599 165.961 4.28599C167.156 4.28599 168.009 4.56332 168.521 5.11799C169.044 5.67266 169.305 6.36599 169.305 7.19799V12.398C169.305 12.5047 169.268 12.5953 169.193 12.67C169.129 12.734 169.044 12.766 168.937 12.766H168.233C168.126 12.766 168.041 12.734 167.977 12.67C167.913 12.5953 167.881 12.5047 167.881 12.398V11.694C167.646 12.046 167.305 12.3393 166.857 12.574C166.409 12.8087 165.833 12.926 165.129 12.926ZM165.449 11.758C166.153 11.758 166.729 11.5287 167.177 11.07C167.625 10.6113 167.849 9.94466 167.849 9.06999V8.62199L165.977 8.89399C165.209 9.00066 164.628 9.18199 164.233 9.43799C163.838 9.69399 163.641 10.014 163.641 10.398C163.641 10.8353 163.817 11.1713 164.169 11.406C164.532 11.6407 164.958 11.758 165.449 11.758ZM172.006 12.766C171.899 12.766 171.809 12.734 171.734 12.67C171.67 12.5953 171.638 12.5047 171.638 12.398V1.77399C171.638 1.65666 171.67 1.56599 171.734 1.50199C171.809 1.43799 171.899 1.40599 172.006 1.40599H172.71C172.817 1.40599 172.902 1.44332 172.966 1.51799C173.041 1.58199 173.078 1.66732 173.078 1.77399V12.398C173.078 12.5047 173.041 12.5953 172.966 12.67C172.902 12.734 172.817 12.766 172.71 12.766H172.006ZM175.865 12.766C175.759 12.766 175.668 12.734 175.593 12.67C175.529 12.5953 175.497 12.5047 175.497 12.398V1.77399C175.497 1.65666 175.529 1.56599 175.593 1.50199C175.668 1.43799 175.759 1.40599 175.865 1.40599H176.569C176.676 1.40599 176.761 1.44332 176.825 1.51799C176.9 1.58199 176.937 1.66732 176.937 1.77399V12.398C176.937 12.5047 176.9 12.5953 176.825 12.67C176.761 12.734 176.676 12.766 176.569 12.766H175.865ZM184.297 15.806C184.201 15.806 184.121 15.774 184.057 15.71C183.993 15.646 183.961 15.5713 183.961 15.486C183.961 15.454 183.987 15.358 184.041 15.198L185.289 12.27L182.233 5.05399C182.169 4.92599 182.137 4.83532 182.137 4.78199C182.147 4.68599 182.185 4.60599 182.249 4.54199C182.313 4.47799 182.387 4.44599 182.473 4.44599H183.209C183.379 4.44599 183.507 4.53132 183.593 4.70199L186.057 10.59L188.585 4.70199C188.67 4.53132 188.798 4.44599 188.969 4.44599H189.689C189.774 4.44599 189.849 4.47799 189.913 4.54199C189.977 4.60599 190.009 4.68066 190.009 4.76599C190.009 4.84066 189.982 4.93666 189.929 5.05399L185.401 15.55C185.347 15.6353 185.289 15.6993 185.225 15.742C185.171 15.7847 185.097 15.806 185.001 15.806H184.297ZM194.717 12.926C193.543 12.926 192.637 12.5953 191.997 11.934C191.367 11.2727 191.031 10.3927 190.989 9.29399L190.973 8.60599L190.989 7.91799C191.031 6.81932 191.373 5.93932 192.013 5.27799C192.663 4.61666 193.565 4.28599 194.717 4.28599C195.869 4.28599 196.765 4.61666 197.405 5.27799C198.055 5.93932 198.402 6.81932 198.445 7.91799C198.466 8.15266 198.477 8.38199 198.477 8.60599C198.477 8.82999 198.466 9.05932 198.445 9.29399C198.402 10.3927 198.061 11.2727 197.421 11.934C196.791 12.5953 195.89 12.926 194.717 12.926ZM194.717 11.726C195.399 11.726 195.938 11.5127 196.333 11.086C196.738 10.6487 196.957 10.0247 196.989 9.21399C196.999 9.10732 197.005 8.90466 197.005 8.60599C197.005 8.30732 196.999 8.10466 196.989 7.99799C196.957 7.18732 196.738 6.56866 196.333 6.14199C195.938 5.70466 195.399 5.48599 194.717 5.48599C194.034 5.48599 193.49 5.70466 193.085 6.14199C192.69 6.56866 192.477 7.18732 192.445 7.99799L192.429 8.60599L192.445 9.21399C192.477 10.0247 192.69 10.6487 193.085 11.086C193.49 11.5127 194.034 11.726 194.717 11.726ZM203.601 12.926C202.588 12.926 201.804 12.6007 201.249 11.95C200.694 11.2887 200.417 10.414 200.417 9.32599V4.81399C200.417 4.70732 200.449 4.62199 200.513 4.55799C200.588 4.48332 200.678 4.44599 200.785 4.44599H201.521C201.628 4.44599 201.713 4.48332 201.777 4.55799C201.852 4.62199 201.889 4.70732 201.889 4.81399V9.24599C201.889 10.8673 202.593 11.678 204.001 11.678C204.684 11.678 205.222 11.4647 205.617 11.038C206.022 10.6007 206.225 10.0033 206.225 9.24599V4.81399C206.225 4.70732 206.257 4.62199 206.321 4.55799C206.396 4.48332 206.486 4.44599 206.593 4.44599H207.329C207.436 4.44599 207.521 4.48332 207.585 4.55799C207.66 4.62199 207.697 4.70732 207.697 4.81399V12.398C207.697 12.5047 207.66 12.5953 207.585 12.67C207.521 12.734 207.436 12.766 207.329 12.766H206.641C206.534 12.766 206.444 12.734 206.369 12.67C206.305 12.5953 206.273 12.5047 206.273 12.398V11.678C205.964 12.094 205.601 12.4087 205.185 12.622C204.769 12.8247 204.241 12.926 203.601 12.926ZM210.459 12.766C210.352 12.766 210.261 12.734 210.187 12.67C210.123 12.5953 210.091 12.5047 210.091 12.398V4.82999C210.091 4.72332 210.123 4.63266 210.187 4.55799C210.261 4.48332 210.352 4.44599 210.459 4.44599H211.131C211.248 4.44599 211.339 4.48332 211.403 4.55799C211.477 4.62199 211.515 4.71266 211.515 4.82999V5.53399C211.952 4.80866 212.693 4.44599 213.739 4.44599H214.363C214.48 4.44599 214.571 4.47799 214.635 4.54199C214.699 4.60599 214.731 4.69666 214.731 4.81399V5.40599C214.731 5.51266 214.699 5.60332 214.635 5.67799C214.571 5.74199 214.48 5.77399 214.363 5.77399H213.451C212.864 5.77399 212.4 5.94466 212.059 6.28599C211.728 6.62732 211.563 7.09132 211.563 7.67799V12.398C211.563 12.5047 211.525 12.5953 211.451 12.67C211.376 12.734 211.285 12.766 211.179 12.766H210.459ZM220.037 12.766C219.93 12.766 219.839 12.734 219.765 12.67C219.701 12.5953 219.669 12.5047 219.669 12.398V4.81399C219.669 4.70732 219.701 4.62199 219.765 4.55799C219.839 4.48332 219.93 4.44599 220.037 4.44599H220.725C220.842 4.44599 220.933 4.47799 220.997 4.54199C221.061 4.60599 221.093 4.69666 221.093 4.81399V5.51799C221.413 5.12332 221.781 4.81932 222.197 4.60599C222.623 4.39266 223.151 4.28599 223.781 4.28599C224.805 4.28599 225.599 4.61666 226.165 5.27799C226.73 5.92866 227.013 6.79266 227.013 7.86999V12.398C227.013 12.5047 226.975 12.5953 226.901 12.67C226.837 12.734 226.751 12.766 226.645 12.766H225.909C225.802 12.766 225.711 12.734 225.637 12.67C225.573 12.5953 225.541 12.5047 225.541 12.398V7.96599C225.541 7.19799 225.354 6.60066 224.981 6.17399C224.607 5.74732 224.074 5.53399 223.381 5.53399C222.698 5.53399 222.154 5.75266 221.749 6.18999C221.343 6.61666 221.141 7.20866 221.141 7.96599V12.398C221.141 12.5047 221.103 12.5953 221.029 12.67C220.965 12.734 220.879 12.766 220.773 12.766H220.037ZM232.621 12.926C231.533 12.926 230.664 12.59 230.013 11.918C229.362 11.2353 229.005 10.3073 228.941 9.13399L228.925 8.58999L228.941 8.06199C229.005 6.90999 229.362 5.99266 230.013 5.30999C230.664 4.62732 231.533 4.28599 232.621 4.28599C233.794 4.28599 234.701 4.65932 235.341 5.40599C235.992 6.15266 236.317 7.16599 236.317 8.44599V8.73399C236.317 8.84066 236.28 8.93132 236.205 9.00599C236.141 9.06999 236.056 9.10199 235.949 9.10199H230.397V9.24599C230.429 9.93932 230.642 10.5313 231.037 11.022C231.432 11.5127 231.954 11.758 232.605 11.758C233.106 11.758 233.512 11.662 233.821 11.47C234.141 11.2673 234.381 11.0593 234.541 10.846C234.637 10.718 234.712 10.6433 234.765 10.622C234.818 10.59 234.909 10.574 235.037 10.574H235.741C235.837 10.574 235.917 10.6007 235.981 10.654C236.056 10.7073 236.093 10.7767 236.093 10.862C236.093 11.0967 235.949 11.3793 235.661 11.71C235.373 12.0407 234.962 12.3287 234.429 12.574C233.906 12.8087 233.304 12.926 232.621 12.926ZM234.861 8.01399V7.96599C234.861 7.21932 234.658 6.61132 234.253 6.14199C233.848 5.67266 233.304 5.43799 232.621 5.43799C231.928 5.43799 231.384 5.67266 230.989 6.14199C230.594 6.61132 230.397 7.21932 230.397 7.96599V8.01399H234.861ZM241.559 12.926C240.471 12.926 239.601 12.59 238.951 11.918C238.3 11.2353 237.943 10.3073 237.879 9.13399L237.863 8.58999L237.879 8.06199C237.943 6.90999 238.3 5.99266 238.951 5.30999C239.601 4.62732 240.471 4.28599 241.559 4.28599C242.732 4.28599 243.639 4.65932 244.279 5.40599C244.929 6.15266 245.255 7.16599 245.255 8.44599V8.73399C245.255 8.84066 245.217 8.93132 245.142 9.00599C245.079 9.06999 244.993 9.10199 244.887 9.10199H239.335V9.24599C239.367 9.93932 239.58 10.5313 239.975 11.022C240.369 11.5127 240.892 11.758 241.543 11.758C242.044 11.758 242.449 11.662 242.759 11.47C243.079 11.2673 243.319 11.0593 243.479 10.846C243.575 10.718 243.649 10.6433 243.703 10.622C243.756 10.59 243.847 10.574 243.975 10.574H244.679C244.775 10.574 244.855 10.6007 244.919 10.654C244.993 10.7073 245.031 10.7767 245.031 10.862C245.031 11.0967 244.887 11.3793 244.599 11.71C244.311 12.0407 243.9 12.3287 243.367 12.574C242.844 12.8087 242.241 12.926 241.559 12.926ZM243.799 8.01399V7.96599C243.799 7.21932 243.596 6.61132 243.191 6.14199C242.785 5.67266 242.241 5.43799 241.559 5.43799C240.865 5.43799 240.321 5.67266 239.927 6.14199C239.532 6.61132 239.335 7.21932 239.335 7.96599V8.01399H243.799ZM250.24 12.926C249.12 12.926 248.277 12.5633 247.712 11.838C247.157 11.1127 246.859 10.1953 246.816 9.08599L246.8 8.60599L246.816 8.12599C246.859 7.02732 247.163 6.11532 247.728 5.38999C248.293 4.65399 249.131 4.28599 250.24 4.28599C251.349 4.28599 252.213 4.68066 252.832 5.46999V1.77399C252.832 1.66732 252.864 1.58199 252.928 1.51799C253.003 1.44332 253.093 1.40599 253.2 1.40599H253.92C254.027 1.40599 254.112 1.44332 254.176 1.51799C254.251 1.58199 254.288 1.66732 254.288 1.77399V12.398C254.288 12.5047 254.251 12.5953 254.176 12.67C254.112 12.734 254.027 12.766 253.92 12.766H253.232C253.125 12.766 253.04 12.734 252.976 12.67C252.912 12.5953 252.88 12.5047 252.88 12.398V11.71C252.272 12.5207 251.392 12.926 250.24 12.926ZM250.544 11.678C251.291 11.678 251.851 11.4327 252.224 10.942C252.597 10.4407 252.8 9.84866 252.832 9.16599C252.843 9.04866 252.848 8.84599 252.848 8.55799C252.848 8.25932 252.843 8.05132 252.832 7.93399C252.811 7.28332 252.603 6.72332 252.208 6.25399C251.824 5.77399 251.269 5.53399 250.544 5.53399C249.776 5.53399 249.216 5.77399 248.864 6.25399C248.512 6.73399 248.32 7.36332 248.288 8.14199L248.272 8.60599C248.272 10.654 249.029 11.678 250.544 11.678ZM259.548 12.926C258.812 12.926 258.188 12.8087 257.676 12.574C257.175 12.3287 256.801 12.0513 256.556 11.742C256.311 11.4327 256.188 11.1767 256.188 10.974C256.188 10.8673 256.225 10.7873 256.3 10.734C256.375 10.67 256.455 10.638 256.54 10.638H257.212C257.276 10.638 257.324 10.6487 257.356 10.67C257.399 10.6913 257.452 10.7393 257.516 10.814C257.761 11.1127 258.033 11.3473 258.332 11.518C258.641 11.6887 259.052 11.774 259.564 11.774C260.14 11.774 260.599 11.6673 260.94 11.454C261.292 11.2407 261.468 10.9313 261.468 10.526C261.468 10.2593 261.393 10.046 261.244 9.88599C261.095 9.72599 260.844 9.58199 260.492 9.45399C260.151 9.32599 259.639 9.18732 258.956 9.03799C258.028 8.83532 257.372 8.54199 256.988 8.15799C256.604 7.77399 256.412 7.27799 256.412 6.66999C256.412 6.27532 256.529 5.89666 256.764 5.53399C256.999 5.16066 257.345 4.86199 257.804 4.63799C258.273 4.40332 258.828 4.28599 259.468 4.28599C260.14 4.28599 260.711 4.39799 261.18 4.62199C261.66 4.84599 262.017 5.10732 262.252 5.40599C262.497 5.70466 262.62 5.95532 262.62 6.15799C262.62 6.25399 262.583 6.33399 262.508 6.39799C262.444 6.46199 262.364 6.49399 262.268 6.49399H261.66C261.511 6.49399 261.404 6.43532 261.34 6.31799C261.159 6.11532 261.004 5.96066 260.876 5.85399C260.759 5.73666 260.583 5.64066 260.348 5.56599C260.113 5.48066 259.82 5.43799 259.468 5.43799C258.945 5.43799 258.545 5.54999 258.268 5.77399C257.991 5.98732 257.852 6.27532 257.852 6.63799C257.852 6.86199 257.911 7.05399 258.028 7.21399C258.145 7.36332 258.369 7.50732 258.7 7.64599C259.031 7.77399 259.521 7.90732 260.172 8.04599C261.185 8.25932 261.9 8.56332 262.316 8.95799C262.743 9.35266 262.956 9.85932 262.956 10.478C262.956 10.9367 262.823 11.3527 262.556 11.726C262.3 12.0993 261.911 12.3927 261.388 12.606C260.876 12.8193 260.263 12.926 259.548 12.926ZM270.596 12.766C270.446 12.766 270.334 12.734 270.26 12.67C270.185 12.606 270.126 12.5047 270.084 12.366L267.812 4.94199L267.78 4.78199C267.78 4.68599 267.812 4.60599 267.876 4.54199C267.94 4.47799 268.02 4.44599 268.116 4.44599H268.772C268.878 4.44599 268.964 4.47799 269.028 4.54199C269.102 4.59532 269.145 4.64866 269.156 4.70199L270.964 10.814L272.884 4.78199C272.905 4.69666 272.953 4.62199 273.028 4.55799C273.102 4.48332 273.204 4.44599 273.332 4.44599H273.844C273.972 4.44599 274.073 4.48332 274.148 4.55799C274.222 4.62199 274.27 4.69666 274.292 4.78199L276.212 10.814L278.02 4.70199C278.03 4.64866 278.068 4.59532 278.132 4.54199C278.206 4.47799 278.297 4.44599 278.404 4.44599H279.06C279.156 4.44599 279.236 4.47799 279.3 4.54199C279.364 4.60599 279.396 4.68599 279.396 4.78199L279.364 4.94199L277.092 12.366C277.049 12.5047 276.99 12.606 276.916 12.67C276.841 12.734 276.729 12.766 276.58 12.766H276.003C275.726 12.766 275.545 12.6327 275.46 12.366L273.588 6.57399L271.716 12.366C271.63 12.6327 271.449 12.766 271.172 12.766H270.596ZM281.424 2.87799C281.318 2.87799 281.227 2.84599 281.152 2.78199C281.088 2.70732 281.056 2.61666 281.056 2.50999V1.67799C281.056 1.57132 281.088 1.48066 281.152 1.40599C281.227 1.33132 281.318 1.29399 281.424 1.29399H282.368C282.475 1.29399 282.566 1.33132 282.64 1.40599C282.715 1.48066 282.752 1.57132 282.752 1.67799V2.50999C282.752 2.61666 282.715 2.70732 282.64 2.78199C282.566 2.84599 282.475 2.87799 282.368 2.87799H281.424ZM281.552 12.766C281.446 12.766 281.355 12.734 281.28 12.67C281.216 12.5953 281.184 12.5047 281.184 12.398V4.81399C281.184 4.70732 281.216 4.62199 281.28 4.55799C281.355 4.48332 281.446 4.44599 281.552 4.44599H282.256C282.363 4.44599 282.448 4.48332 282.512 4.55799C282.587 4.62199 282.624 4.70732 282.624 4.81399V12.398C282.624 12.5047 282.587 12.5953 282.512 12.67C282.448 12.734 282.363 12.766 282.256 12.766H281.552ZM288.228 12.766C286.575 12.766 285.748 11.8327 285.748 9.96599V5.67799H284.484C284.377 5.67799 284.292 5.64599 284.228 5.58199C284.164 5.51799 284.132 5.43266 284.132 5.32599V4.81399C284.132 4.70732 284.164 4.62199 284.228 4.55799C284.292 4.48332 284.377 4.44599 284.484 4.44599H285.748V1.77399C285.748 1.66732 285.78 1.58199 285.844 1.51799C285.908 1.44332 285.993 1.40599 286.1 1.40599H286.804C286.911 1.40599 286.996 1.44332 287.06 1.51799C287.135 1.58199 287.172 1.66732 287.172 1.77399V4.44599H289.156C289.263 4.44599 289.348 4.48332 289.412 4.55799C289.487 4.62199 289.524 4.70732 289.524 4.81399V5.32599C289.524 5.43266 289.487 5.51799 289.412 5.58199C289.348 5.64599 289.263 5.67799 289.156 5.67799H287.172V9.85399C287.172 10.398 287.257 10.8087 287.428 11.086C287.609 11.3633 287.913 11.502 288.34 11.502H289.316C289.423 11.502 289.508 11.5393 289.572 11.614C289.636 11.678 289.668 11.7633 289.668 11.87V12.398C289.668 12.5047 289.636 12.5953 289.572 12.67C289.508 12.734 289.423 12.766 289.316 12.766H288.228ZM291.615 12.766C291.509 12.766 291.418 12.734 291.343 12.67C291.279 12.5953 291.247 12.5047 291.247 12.398V1.77399C291.247 1.65666 291.279 1.56599 291.343 1.50199C291.418 1.43799 291.509 1.40599 291.615 1.40599H292.351C292.469 1.40599 292.559 1.43799 292.623 1.50199C292.687 1.56599 292.719 1.65666 292.719 1.77399V5.50199C293.029 5.10732 293.391 4.80866 293.807 4.60599C294.234 4.39266 294.757 4.28599 295.375 4.28599C296.399 4.28599 297.194 4.61666 297.759 5.27799C298.335 5.92866 298.623 6.79266 298.623 7.86999V12.398C298.623 12.5047 298.586 12.5953 298.511 12.67C298.447 12.734 298.362 12.766 298.255 12.766H297.503C297.397 12.766 297.306 12.734 297.231 12.67C297.167 12.5953 297.135 12.5047 297.135 12.398V7.96599C297.135 7.19799 296.949 6.60066 296.575 6.17399C296.202 5.74732 295.663 5.53399 294.959 5.53399C294.277 5.53399 293.733 5.75266 293.327 6.18999C292.922 6.61666 292.719 7.20866 292.719 7.96599V12.398C292.719 12.5047 292.682 12.5953 292.607 12.67C292.543 12.734 292.458 12.766 292.351 12.766H291.615ZM308.184 12.926C307.096 12.926 306.226 12.59 305.576 11.918C304.925 11.2353 304.568 10.3073 304.504 9.13399L304.488 8.58999L304.504 8.06199C304.568 6.90999 304.925 5.99266 305.576 5.30999C306.226 4.62732 307.096 4.28599 308.184 4.28599C309.357 4.28599 310.264 4.65932 310.904 5.40599C311.554 6.15266 311.88 7.16599 311.88 8.44599V8.73399C311.88 8.84066 311.842 8.93132 311.767 9.00599C311.704 9.06999 311.618 9.10199 311.512 9.10199H305.96V9.24599C305.992 9.93932 306.205 10.5313 306.6 11.022C306.994 11.5127 307.517 11.758 308.168 11.758C308.669 11.758 309.074 11.662 309.384 11.47C309.704 11.2673 309.944 11.0593 310.104 10.846C310.2 10.718 310.274 10.6433 310.328 10.622C310.381 10.59 310.472 10.574 310.6 10.574H311.304C311.4 10.574 311.48 10.6007 311.544 10.654C311.618 10.7073 311.656 10.7767 311.656 10.862C311.656 11.0967 311.512 11.3793 311.224 11.71C310.936 12.0407 310.525 12.3287 309.992 12.574C309.469 12.8087 308.866 12.926 308.184 12.926ZM310.424 8.01399V7.96599C310.424 7.21932 310.221 6.61132 309.816 6.14199C309.41 5.67266 308.866 5.43799 308.184 5.43799C307.49 5.43799 306.946 5.67266 306.552 6.14199C306.157 6.61132 305.96 7.21932 305.96 7.96599V8.01399H310.424ZM316.129 12.926C315.606 12.926 315.121 12.8193 314.673 12.606C314.236 12.3927 313.884 12.1047 313.617 11.742C313.361 11.3687 313.233 10.958 313.233 10.51C313.233 9.80599 313.521 9.22999 314.097 8.78199C314.673 8.33399 315.457 8.03532 316.449 7.88599L318.849 7.54999V7.08599C318.849 5.98732 318.214 5.43799 316.945 5.43799C316.454 5.43799 316.06 5.53932 315.761 5.74199C315.462 5.93399 315.244 6.16332 315.105 6.42999C315.062 6.53666 315.014 6.61132 314.961 6.65399C314.918 6.68599 314.854 6.70199 314.769 6.70199H314.145C314.049 6.70199 313.964 6.66999 313.889 6.60599C313.825 6.53132 313.793 6.44599 313.793 6.34999C313.793 6.10466 313.905 5.82199 314.129 5.50199C314.364 5.17132 314.721 4.88866 315.201 4.65399C315.681 4.40866 316.268 4.28599 316.961 4.28599C318.156 4.28599 319.009 4.56332 319.521 5.11799C320.044 5.67266 320.305 6.36599 320.305 7.19799V12.398C320.305 12.5047 320.268 12.5953 320.193 12.67C320.129 12.734 320.044 12.766 319.937 12.766H319.233C319.126 12.766 319.041 12.734 318.977 12.67C318.913 12.5953 318.881 12.5047 318.881 12.398V11.694C318.646 12.046 318.305 12.3393 317.857 12.574C317.409 12.8087 316.833 12.926 316.129 12.926ZM316.449 11.758C317.153 11.758 317.729 11.5287 318.177 11.07C318.625 10.6113 318.849 9.94466 318.849 9.06999V8.62199L316.977 8.89399C316.209 9.00066 315.628 9.18199 315.233 9.43799C314.838 9.69399 314.641 10.014 314.641 10.398C314.641 10.8353 314.817 11.1713 315.169 11.406C315.532 11.6407 315.958 11.758 316.449 11.758ZM325.47 12.926C324.734 12.926 324.11 12.8087 323.598 12.574C323.097 12.3287 322.723 12.0513 322.478 11.742C322.233 11.4327 322.11 11.1767 322.11 10.974C322.11 10.8673 322.147 10.7873 322.222 10.734C322.297 10.67 322.377 10.638 322.462 10.638H323.134C323.198 10.638 323.246 10.6487 323.278 10.67C323.321 10.6913 323.374 10.7393 323.438 10.814C323.683 11.1127 323.955 11.3473 324.254 11.518C324.563 11.6887 324.974 11.774 325.486 11.774C326.062 11.774 326.521 11.6673 326.862 11.454C327.214 11.2407 327.39 10.9313 327.39 10.526C327.39 10.2593 327.315 10.046 327.166 9.88599C327.017 9.72599 326.766 9.58199 326.414 9.45399C326.073 9.32599 325.561 9.18732 324.878 9.03799C323.95 8.83532 323.294 8.54199 322.91 8.15799C322.526 7.77399 322.334 7.27799 322.334 6.66999C322.334 6.27532 322.451 5.89666 322.686 5.53399C322.921 5.16066 323.267 4.86199 323.726 4.63799C324.195 4.40332 324.75 4.28599 325.39 4.28599C326.062 4.28599 326.633 4.39799 327.102 4.62199C327.582 4.84599 327.939 5.10732 328.174 5.40599C328.419 5.70466 328.542 5.95532 328.542 6.15799C328.542 6.25399 328.505 6.33399 328.43 6.39799C328.366 6.46199 328.286 6.49399 328.19 6.49399H327.582C327.433 6.49399 327.326 6.43532 327.262 6.31799C327.081 6.11532 326.926 5.96066 326.798 5.85399C326.681 5.73666 326.505 5.64066 326.27 5.56599C326.035 5.48066 325.742 5.43799 325.39 5.43799C324.867 5.43799 324.467 5.54999 324.19 5.77399C323.913 5.98732 323.774 6.27532 323.774 6.63799C323.774 6.86199 323.833 7.05399 323.95 7.21399C324.067 7.36332 324.291 7.50732 324.622 7.64599C324.953 7.77399 325.443 7.90732 326.094 8.04599C327.107 8.25932 327.822 8.56332 328.238 8.95799C328.665 9.35266 328.878 9.85932 328.878 10.478C328.878 10.9367 328.745 11.3527 328.478 11.726C328.222 12.0993 327.833 12.3927 327.31 12.606C326.798 12.8193 326.185 12.926 325.47 12.926ZM334.043 12.926C332.955 12.926 332.086 12.59 331.435 11.918C330.784 11.2353 330.427 10.3073 330.363 9.13399L330.347 8.58999L330.363 8.06199C330.427 6.90999 330.784 5.99266 331.435 5.30999C332.086 4.62732 332.955 4.28599 334.043 4.28599C335.216 4.28599 336.123 4.65932 336.763 5.40599C337.414 6.15266 337.739 7.16599 337.739 8.44599V8.73399C337.739 8.84066 337.702 8.93132 337.627 9.00599C337.563 9.06999 337.478 9.10199 337.371 9.10199H331.819V9.24599C331.851 9.93932 332.064 10.5313 332.459 11.022C332.854 11.5127 333.376 11.758 334.027 11.758C334.528 11.758 334.934 11.662 335.243 11.47C335.563 11.2673 335.803 11.0593 335.963 10.846C336.059 10.718 336.134 10.6433 336.187 10.622C336.24 10.59 336.331 10.574 336.459 10.574H337.163C337.259 10.574 337.339 10.6007 337.403 10.654C337.478 10.7073 337.515 10.7767 337.515 10.862C337.515 11.0967 337.371 11.3793 337.083 11.71C336.795 12.0407 336.384 12.3287 335.851 12.574C335.328 12.8087 334.726 12.926 334.043 12.926ZM336.283 8.01399V7.96599C336.283 7.21932 336.08 6.61132 335.675 6.14199C335.27 5.67266 334.726 5.43799 334.043 5.43799C333.35 5.43799 332.806 5.67266 332.411 6.14199C332.016 6.61132 331.819 7.21932 331.819 7.96599V8.01399H336.283ZM345.926 12.926C345.403 12.926 344.918 12.8193 344.47 12.606C344.033 12.3927 343.681 12.1047 343.414 11.742C343.158 11.3687 343.03 10.958 343.03 10.51C343.03 9.80599 343.318 9.22999 343.894 8.78199C344.47 8.33399 345.254 8.03532 346.246 7.88599L348.646 7.54999V7.08599C348.646 5.98732 348.011 5.43799 346.742 5.43799C346.251 5.43799 345.857 5.53932 345.558 5.74199C345.259 5.93399 345.041 6.16332 344.902 6.42999C344.859 6.53666 344.811 6.61132 344.758 6.65399C344.715 6.68599 344.651 6.70199 344.566 6.70199H343.942C343.846 6.70199 343.761 6.66999 343.686 6.60599C343.622 6.53132 343.59 6.44599 343.59 6.34999C343.59 6.10466 343.702 5.82199 343.926 5.50199C344.161 5.17132 344.518 4.88866 344.998 4.65399C345.478 4.40866 346.065 4.28599 346.758 4.28599C347.953 4.28599 348.806 4.56332 349.318 5.11799C349.841 5.67266 350.102 6.36599 350.102 7.19799V12.398C350.102 12.5047 350.065 12.5953 349.99 12.67C349.926 12.734 349.841 12.766 349.734 12.766H349.03C348.923 12.766 348.838 12.734 348.774 12.67C348.71 12.5953 348.678 12.5047 348.678 12.398V11.694C348.443 12.046 348.102 12.3393 347.654 12.574C347.206 12.8087 346.63 12.926 345.926 12.926ZM346.246 11.758C346.95 11.758 347.526 11.5287 347.974 11.07C348.422 10.6113 348.646 9.94466 348.646 9.06999V8.62199L346.774 8.89399C346.006 9.00066 345.425 9.18199 345.03 9.43799C344.635 9.69399 344.438 10.014 344.438 10.398C344.438 10.8353 344.614 11.1713 344.966 11.406C345.329 11.6407 345.755 11.758 346.246 11.758ZM352.787 12.766C352.68 12.766 352.589 12.734 352.515 12.67C352.451 12.5953 352.419 12.5047 352.419 12.398V4.81399C352.419 4.70732 352.451 4.62199 352.515 4.55799C352.589 4.48332 352.68 4.44599 352.787 4.44599H353.475C353.592 4.44599 353.683 4.47799 353.747 4.54199C353.811 4.60599 353.843 4.69666 353.843 4.81399V5.51799C354.163 5.12332 354.531 4.81932 354.947 4.60599C355.373 4.39266 355.901 4.28599 356.531 4.28599C357.555 4.28599 358.349 4.61666 358.915 5.27799C359.48 5.92866 359.763 6.79266 359.763 7.86999V12.398C359.763 12.5047 359.725 12.5953 359.651 12.67C359.587 12.734 359.501 12.766 359.395 12.766H358.659C358.552 12.766 358.461 12.734 358.387 12.67C358.323 12.5953 358.291 12.5047 358.291 12.398V7.96599C358.291 7.19799 358.104 6.60066 357.731 6.17399C357.357 5.74732 356.824 5.53399 356.131 5.53399C355.448 5.53399 354.904 5.75266 354.499 6.18999C354.093 6.61666 353.891 7.20866 353.891 7.96599V12.398C353.891 12.5047 353.853 12.5953 353.779 12.67C353.715 12.734 353.629 12.766 353.523 12.766H352.787ZM365.115 12.926C363.995 12.926 363.152 12.5633 362.587 11.838C362.032 11.1127 361.734 10.1953 361.691 9.08599L361.675 8.60599L361.691 8.12599C361.734 7.02732 362.038 6.11532 362.603 5.38999C363.168 4.65399 364.006 4.28599 365.115 4.28599C366.224 4.28599 367.088 4.68066 367.707 5.46999V1.77399C367.707 1.66732 367.739 1.58199 367.803 1.51799C367.878 1.44332 367.968 1.40599 368.075 1.40599H368.795C368.902 1.40599 368.987 1.44332 369.051 1.51799C369.126 1.58199 369.163 1.66732 369.163 1.77399V12.398C369.163 12.5047 369.126 12.5953 369.051 12.67C368.987 12.734 368.902 12.766 368.795 12.766H368.107C368 12.766 367.915 12.734 367.851 12.67C367.787 12.5953 367.755 12.5047 367.755 12.398V11.71C367.147 12.5207 366.267 12.926 365.115 12.926ZM365.419 11.678C366.166 11.678 366.726 11.4327 367.099 10.942C367.472 10.4407 367.675 9.84866 367.707 9.16599C367.718 9.04866 367.723 8.84599 367.723 8.55799C367.723 8.25932 367.718 8.05132 367.707 7.93399C367.686 7.28332 367.478 6.72332 367.083 6.25399C366.699 5.77399 366.144 5.53399 365.419 5.53399C364.651 5.53399 364.091 5.77399 363.739 6.25399C363.387 6.73399 363.195 7.36332 363.163 8.14199L363.147 8.60599C363.147 10.654 363.904 11.678 365.419 11.678ZM376.416 12.766C376.309 12.766 376.218 12.734 376.144 12.67C376.08 12.5953 376.048 12.5047 376.048 12.398V5.67799H374.672C374.565 5.67799 374.474 5.64599 374.4 5.58199C374.336 5.51799 374.304 5.43266 374.304 5.32599V4.81399C374.304 4.70732 374.336 4.62199 374.4 4.55799C374.474 4.48332 374.565 4.44599 374.672 4.44599H376.048V3.64599C376.048 2.78199 376.256 2.11532 376.672 1.64599C377.098 1.16599 377.792 0.925991 378.752 0.925991H379.696C379.802 0.925991 379.888 0.963324 379.952 1.03799C380.026 1.10199 380.064 1.18732 380.064 1.29399V1.80599C380.064 1.91266 380.026 1.99799 379.952 2.06199C379.888 2.12599 379.802 2.15799 379.696 2.15799H378.784C378.293 2.15799 377.952 2.28599 377.76 2.54199C377.568 2.79799 377.472 3.19266 377.472 3.72599V4.44599H379.536C379.642 4.44599 379.728 4.48332 379.792 4.55799C379.866 4.62199 379.904 4.70732 379.904 4.81399V5.32599C379.904 5.43266 379.866 5.51799 379.792 5.58199C379.728 5.64599 379.642 5.67799 379.536 5.67799H377.472V12.398C377.472 12.5047 377.434 12.5953 377.36 12.67C377.296 12.734 377.21 12.766 377.104 12.766H376.416ZM384.429 12.926C383.416 12.926 382.632 12.6007 382.077 11.95C381.522 11.2887 381.245 10.414 381.245 9.32599V4.81399C381.245 4.70732 381.277 4.62199 381.341 4.55799C381.416 4.48332 381.506 4.44599 381.613 4.44599H382.349C382.456 4.44599 382.541 4.48332 382.605 4.55799C382.68 4.62199 382.717 4.70732 382.717 4.81399V9.24599C382.717 10.8673 383.421 11.678 384.829 11.678C385.512 11.678 386.05 11.4647 386.445 11.038C386.85 10.6007 387.053 10.0033 387.053 9.24599V4.81399C387.053 4.70732 387.085 4.62199 387.149 4.55799C387.224 4.48332 387.314 4.44599 387.421 4.44599H388.157C388.264 4.44599 388.349 4.48332 388.413 4.55799C388.488 4.62199 388.525 4.70732 388.525 4.81399V12.398C388.525 12.5047 388.488 12.5953 388.413 12.67C388.349 12.734 388.264 12.766 388.157 12.766H387.469C387.362 12.766 387.272 12.734 387.197 12.67C387.133 12.5953 387.101 12.5047 387.101 12.398V11.678C386.792 12.094 386.429 12.4087 386.013 12.622C385.597 12.8247 385.069 12.926 384.429 12.926ZM391.287 12.766C391.18 12.766 391.089 12.734 391.015 12.67C390.951 12.5953 390.919 12.5047 390.919 12.398V4.81399C390.919 4.70732 390.951 4.62199 391.015 4.55799C391.089 4.48332 391.18 4.44599 391.287 4.44599H391.975C392.092 4.44599 392.183 4.47799 392.247 4.54199C392.311 4.60599 392.343 4.69666 392.343 4.81399V5.51799C392.663 5.12332 393.031 4.81932 393.447 4.60599C393.873 4.39266 394.401 4.28599 395.031 4.28599C396.055 4.28599 396.849 4.61666 397.415 5.27799C397.98 5.92866 398.263 6.79266 398.263 7.86999V12.398C398.263 12.5047 398.225 12.5953 398.151 12.67C398.087 12.734 398.001 12.766 397.895 12.766H397.159C397.052 12.766 396.961 12.734 396.887 12.67C396.823 12.5953 396.791 12.5047 396.791 12.398V7.96599C396.791 7.19799 396.604 6.60066 396.231 6.17399C395.857 5.74732 395.324 5.53399 394.631 5.53399C393.948 5.53399 393.404 5.75266 392.999 6.18999C392.593 6.61666 392.391 7.20866 392.391 7.96599V12.398C392.391 12.5047 392.353 12.5953 392.279 12.67C392.215 12.734 392.129 12.766 392.023 12.766H391.287ZM407.617 12.926C406.603 12.926 405.819 12.6007 405.265 11.95C404.71 11.2887 404.433 10.414 404.433 9.32599V4.81399C404.433 4.70732 404.465 4.62199 404.529 4.55799C404.603 4.48332 404.694 4.44599 404.801 4.44599H405.537C405.643 4.44599 405.729 4.48332 405.793 4.55799C405.867 4.62199 405.905 4.70732 405.905 4.81399V9.24599C405.905 10.8673 406.609 11.678 408.016 11.678C408.699 11.678 409.238 11.4647 409.633 11.038C410.038 10.6007 410.241 10.0033 410.241 9.24599V4.81399C410.241 4.70732 410.273 4.62199 410.337 4.55799C410.411 4.48332 410.502 4.44599 410.609 4.44599H411.345C411.451 4.44599 411.537 4.48332 411.601 4.55799C411.675 4.62199 411.713 4.70732 411.713 4.81399V12.398C411.713 12.5047 411.675 12.5953 411.601 12.67C411.537 12.734 411.451 12.766 411.345 12.766H410.657C410.55 12.766 410.459 12.734 410.385 12.67C410.321 12.5953 410.289 12.5047 410.289 12.398V11.678C409.979 12.094 409.617 12.4087 409.201 12.622C408.785 12.8247 408.257 12.926 407.617 12.926ZM416.954 12.926C416.218 12.926 415.594 12.8087 415.082 12.574C414.581 12.3287 414.208 12.0513 413.962 11.742C413.717 11.4327 413.594 11.1767 413.594 10.974C413.594 10.8673 413.632 10.7873 413.706 10.734C413.781 10.67 413.861 10.638 413.946 10.638H414.618C414.682 10.638 414.73 10.6487 414.762 10.67C414.805 10.6913 414.858 10.7393 414.922 10.814C415.168 11.1127 415.44 11.3473 415.738 11.518C416.048 11.6887 416.458 11.774 416.97 11.774C417.546 11.774 418.005 11.6673 418.346 11.454C418.698 11.2407 418.874 10.9313 418.874 10.526C418.874 10.2593 418.8 10.046 418.65 9.88599C418.501 9.72599 418.25 9.58199 417.898 9.45399C417.557 9.32599 417.045 9.18732 416.362 9.03799C415.434 8.83532 414.778 8.54199 414.394 8.15799C414.01 7.77399 413.818 7.27799 413.818 6.66999C413.818 6.27532 413.936 5.89666 414.17 5.53399C414.405 5.16066 414.752 4.86199 415.21 4.63799C415.68 4.40332 416.234 4.28599 416.874 4.28599C417.546 4.28599 418.117 4.39799 418.586 4.62199C419.066 4.84599 419.424 5.10732 419.658 5.40599C419.904 5.70466 420.026 5.95532 420.026 6.15799C420.026 6.25399 419.989 6.33399 419.914 6.39799C419.85 6.46199 419.77 6.49399 419.674 6.49399H419.066C418.917 6.49399 418.81 6.43532 418.746 6.31799C418.565 6.11532 418.41 5.96066 418.282 5.85399C418.165 5.73666 417.989 5.64066 417.754 5.56599C417.52 5.48066 417.226 5.43799 416.874 5.43799C416.352 5.43799 415.952 5.54999 415.674 5.77399C415.397 5.98732 415.258 6.27532 415.258 6.63799C415.258 6.86199 415.317 7.05399 415.434 7.21399C415.552 7.36332 415.776 7.50732 416.106 7.64599C416.437 7.77399 416.928 7.90732 417.578 8.04599C418.592 8.25932 419.306 8.56332 419.722 8.95799C420.149 9.35266 420.362 9.85932 420.362 10.478C420.362 10.9367 420.229 11.3527 419.962 11.726C419.706 12.0993 419.317 12.3927 418.794 12.606C418.282 12.8193 417.669 12.926 416.954 12.926ZM422.471 2.87799C422.365 2.87799 422.274 2.84599 422.199 2.78199C422.135 2.70732 422.103 2.61666 422.103 2.50999V1.67799C422.103 1.57132 422.135 1.48066 422.199 1.40599C422.274 1.33132 422.365 1.29399 422.471 1.29399H423.415C423.522 1.29399 423.613 1.33132 423.687 1.40599C423.762 1.48066 423.799 1.57132 423.799 1.67799V2.50999C423.799 2.61666 423.762 2.70732 423.687 2.78199C423.613 2.84599 423.522 2.87799 423.415 2.87799H422.471ZM422.599 12.766C422.493 12.766 422.402 12.734 422.327 12.67C422.263 12.5953 422.231 12.5047 422.231 12.398V4.81399C422.231 4.70732 422.263 4.62199 422.327 4.55799C422.402 4.48332 422.493 4.44599 422.599 4.44599H423.303C423.41 4.44599 423.495 4.48332 423.559 4.55799C423.634 4.62199 423.671 4.70732 423.671 4.81399V12.398C423.671 12.5047 423.634 12.5953 423.559 12.67C423.495 12.734 423.41 12.766 423.303 12.766H422.599ZM426.443 12.766C426.336 12.766 426.246 12.734 426.171 12.67C426.107 12.5953 426.075 12.5047 426.075 12.398V4.81399C426.075 4.70732 426.107 4.62199 426.171 4.55799C426.246 4.48332 426.336 4.44599 426.443 4.44599H427.131C427.248 4.44599 427.339 4.47799 427.403 4.54199C427.467 4.60599 427.499 4.69666 427.499 4.81399V5.51799C427.819 5.12332 428.187 4.81932 428.603 4.60599C429.03 4.39266 429.558 4.28599 430.187 4.28599C431.211 4.28599 432.006 4.61666 432.571 5.27799C433.136 5.92866 433.419 6.79266 433.419 7.86999V12.398C433.419 12.5047 433.382 12.5953 433.307 12.67C433.243 12.734 433.158 12.766 433.051 12.766H432.315C432.208 12.766 432.118 12.734 432.043 12.67C431.979 12.5953 431.947 12.5047 431.947 12.398V7.96599C431.947 7.19799 431.76 6.60066 431.387 6.17399C431.014 5.74732 430.48 5.53399 429.787 5.53399C429.104 5.53399 428.56 5.75266 428.155 6.18999C427.75 6.61666 427.547 7.20866 427.547 7.96599V12.398C427.547 12.5047 427.51 12.5953 427.435 12.67C427.371 12.734 427.286 12.766 427.179 12.766H426.443ZM439.107 16.286C438.222 16.286 437.513 16.1367 436.979 15.838C436.446 15.5393 436.067 15.198 435.843 14.814C435.63 14.43 435.523 14.0993 435.523 13.822C435.523 13.726 435.561 13.6407 435.635 13.566C435.71 13.502 435.795 13.47 435.891 13.47H436.595C436.691 13.47 436.771 13.4913 436.835 13.534C436.899 13.5873 436.953 13.678 436.995 13.806C437.294 14.6593 437.971 15.086 439.027 15.086C439.827 15.086 440.419 14.9153 440.803 14.574C441.187 14.2327 441.379 13.63 441.379 12.766V11.662C440.761 12.4513 439.897 12.846 438.787 12.846C437.657 12.846 436.809 12.4833 436.243 11.758C435.689 11.0327 435.395 10.1153 435.363 9.00599L435.347 8.55799L435.363 8.12599C435.395 7.02732 435.689 6.11532 436.243 5.38999C436.809 4.65399 437.657 4.28599 438.787 4.28599C439.907 4.28599 440.782 4.69666 441.411 5.51799V4.82999C441.411 4.72332 441.443 4.63266 441.507 4.55799C441.582 4.48332 441.673 4.44599 441.779 4.44599H442.467C442.574 4.44599 442.659 4.48332 442.723 4.55799C442.798 4.63266 442.835 4.72332 442.835 4.82999V12.59C442.835 15.054 441.593 16.286 439.107 16.286ZM439.075 11.598C439.822 11.598 440.382 11.358 440.755 10.878C441.139 10.3873 441.347 9.80066 441.379 9.11799C441.39 9.02199 441.395 8.83532 441.395 8.55799C441.395 8.29132 441.39 8.10999 441.379 8.01399C441.347 7.33132 441.139 6.74999 440.755 6.26999C440.382 5.77932 439.822 5.53399 439.075 5.53399C438.307 5.53399 437.747 5.77932 437.395 6.26999C437.054 6.74999 436.867 7.37399 436.835 8.14199L436.819 8.55799L436.835 8.98999C436.867 9.75799 437.054 10.3873 437.395 10.878C437.747 11.358 438.307 11.598 439.075 11.598ZM449.616 12.766C449.51 12.766 449.419 12.7287 449.344 12.654C449.27 12.5793 449.232 12.4887 449.232 12.382V1.94999C449.232 1.83266 449.27 1.74199 449.344 1.67799C449.419 1.60332 449.51 1.56599 449.616 1.56599H451.12C451.238 1.56599 451.328 1.60332 451.392 1.67799C451.467 1.74199 451.504 1.83266 451.504 1.94999V10.846H456.576C456.694 10.846 456.79 10.8833 456.864 10.958C456.939 11.0327 456.976 11.1233 456.976 11.23V12.382C456.976 12.4887 456.939 12.5793 456.864 12.654C456.79 12.7287 456.694 12.766 456.576 12.766H449.616ZM460.753 12.926C460.209 12.926 459.708 12.8193 459.249 12.606C458.801 12.382 458.444 12.0833 458.177 11.71C457.921 11.3367 457.793 10.926 457.793 10.478C457.793 9.75266 458.087 9.16599 458.673 8.71799C459.26 8.26999 460.065 7.96599 461.089 7.80599L463.281 7.48599V7.14999C463.281 6.69132 463.164 6.34466 462.929 6.10999C462.695 5.87532 462.321 5.75799 461.809 5.75799C461.457 5.75799 461.175 5.82199 460.961 5.94999C460.748 6.07799 460.572 6.21132 460.433 6.34999C460.305 6.47799 460.22 6.56332 460.177 6.60599C460.135 6.73399 460.055 6.79799 459.937 6.79799H458.689C458.593 6.79799 458.508 6.76599 458.433 6.70199C458.369 6.63799 458.337 6.55266 458.337 6.44599C458.348 6.17932 458.476 5.88066 458.721 5.54999C458.977 5.20866 459.367 4.91532 459.889 4.66999C460.412 4.41399 461.057 4.28599 461.825 4.28599C463.084 4.28599 464.001 4.56866 464.577 5.13399C465.153 5.69932 465.441 6.44066 465.441 7.35799V12.382C465.441 12.4887 465.404 12.5793 465.329 12.654C465.265 12.7287 465.175 12.766 465.057 12.766H463.729C463.623 12.766 463.532 12.7287 463.457 12.654C463.383 12.5793 463.345 12.4887 463.345 12.382V11.758C463.111 12.0993 462.78 12.382 462.353 12.606C461.927 12.8193 461.393 12.926 460.753 12.926ZM461.297 11.39C461.884 11.39 462.364 11.198 462.737 10.814C463.111 10.43 463.297 9.87532 463.297 9.14999V8.82999L461.697 9.08599C460.471 9.27799 459.857 9.68866 459.857 10.318C459.857 10.6593 459.996 10.926 460.273 11.118C460.561 11.2993 460.903 11.39 461.297 11.39ZM470.661 12.926C469.851 12.926 469.174 12.8033 468.63 12.558C468.086 12.3127 467.68 12.03 467.414 11.71C467.158 11.3793 467.03 11.0967 467.03 10.862C467.03 10.7553 467.062 10.67 467.126 10.606C467.2 10.542 467.286 10.51 467.382 10.51H468.694C468.779 10.51 468.854 10.5527 468.918 10.638C468.971 10.6807 469.088 10.782 469.27 10.942C469.462 11.102 469.675 11.23 469.91 11.326C470.155 11.4113 470.422 11.454 470.71 11.454C471.136 11.454 471.483 11.374 471.75 11.214C472.016 11.0433 472.15 10.8033 472.15 10.494C472.15 10.2807 472.086 10.11 471.958 9.98199C471.84 9.84332 471.622 9.72066 471.302 9.61399C470.992 9.49666 470.523 9.36866 469.894 9.22999C468.987 9.03799 468.315 8.74466 467.878 8.34999C467.451 7.95532 467.238 7.43266 467.238 6.78199C467.238 6.35532 467.366 5.95532 467.622 5.58199C467.878 5.19799 468.256 4.88866 468.758 4.65399C469.27 4.40866 469.878 4.28599 470.582 4.28599C471.307 4.28599 471.931 4.40332 472.454 4.63799C472.976 4.86199 473.371 5.13399 473.638 5.45399C473.915 5.77399 474.054 6.05666 474.054 6.30199C474.054 6.39799 474.016 6.48332 473.942 6.55799C473.878 6.62199 473.798 6.65399 473.702 6.65399H472.502C472.384 6.65399 472.294 6.61132 472.23 6.52599C472.155 6.47266 472.032 6.37666 471.862 6.23799C471.702 6.08866 471.52 5.97132 471.318 5.88599C471.115 5.80066 470.87 5.75799 470.582 5.75799C470.187 5.75799 469.883 5.84332 469.67 6.01399C469.456 6.18466 469.35 6.40866 469.35 6.68599C469.35 6.87799 469.398 7.03799 469.494 7.16599C469.6 7.29399 469.808 7.41666 470.118 7.53399C470.427 7.64066 470.891 7.75266 471.51 7.86999C473.43 8.24332 474.39 9.08066 474.39 10.382C474.39 11.1393 474.059 11.7527 473.398 12.222C472.747 12.6913 471.835 12.926 470.661 12.926ZM476.425 12.766C476.318 12.766 476.227 12.7287 476.153 12.654C476.078 12.5793 476.041 12.4887 476.041 12.382V1.78999C476.041 1.67266 476.078 1.58199 476.153 1.51799C476.227 1.44332 476.318 1.40599 476.425 1.40599H477.769C477.886 1.40599 477.977 1.44332 478.041 1.51799C478.115 1.58199 478.153 1.67266 478.153 1.78999V12.382C478.153 12.4887 478.115 12.5793 478.041 12.654C477.977 12.7287 477.886 12.766 477.769 12.766H476.425ZM483.875 12.926C482.68 12.926 481.731 12.5847 481.027 11.902C480.333 11.2193 479.965 10.2487 479.923 8.98999L479.907 8.58999C479.907 7.25666 480.253 6.20599 480.947 5.43799C481.651 4.66999 482.621 4.28599 483.859 4.28599C485.128 4.28599 486.104 4.66999 486.787 5.43799C487.48 6.20599 487.827 7.22999 487.827 8.50999V8.84599C487.827 8.95266 487.789 9.04332 487.715 9.11799C487.64 9.19266 487.544 9.22999 487.427 9.22999H482.115V9.35799C482.136 9.95532 482.296 10.4513 482.595 10.846C482.904 11.23 483.325 11.422 483.859 11.422C484.467 11.422 484.963 11.1767 485.347 10.686C485.443 10.5687 485.517 10.4993 485.571 10.478C485.624 10.446 485.715 10.43 485.843 10.43H487.251C487.347 10.43 487.427 10.4567 487.491 10.51C487.565 10.5633 487.603 10.638 487.603 10.734C487.603 10.99 487.448 11.294 487.139 11.646C486.84 11.9873 486.408 12.286 485.843 12.542C485.277 12.798 484.621 12.926 483.875 12.926ZM485.619 7.86999V7.83799C485.619 7.20866 485.459 6.70732 485.139 6.33399C484.829 5.94999 484.403 5.75799 483.859 5.75799C483.315 5.75799 482.888 5.94999 482.579 6.33399C482.269 6.70732 482.115 7.20866 482.115 7.83799V7.86999H485.619ZM492.693 12.926C491.882 12.926 491.205 12.8033 490.661 12.558C490.117 12.3127 489.711 12.03 489.445 11.71C489.189 11.3793 489.061 11.0967 489.061 10.862C489.061 10.7553 489.093 10.67 489.157 10.606C489.231 10.542 489.317 10.51 489.413 10.51H490.725C490.81 10.51 490.885 10.5527 490.949 10.638C491.002 10.6807 491.119 10.782 491.301 10.942C491.493 11.102 491.706 11.23 491.941 11.326C492.186 11.4113 492.453 11.454 492.741 11.454C493.167 11.454 493.514 11.374 493.781 11.214C494.047 11.0433 494.181 10.8033 494.181 10.494C494.181 10.2807 494.117 10.11 493.989 9.98199C493.871 9.84332 493.653 9.72066 493.333 9.61399C493.023 9.49666 492.554 9.36866 491.925 9.22999C491.018 9.03799 490.346 8.74466 489.909 8.34999C489.482 7.95532 489.269 7.43266 489.269 6.78199C489.269 6.35532 489.397 5.95532 489.653 5.58199C489.909 5.19799 490.287 4.88866 490.789 4.65399C491.301 4.40866 491.909 4.28599 492.613 4.28599C493.338 4.28599 493.962 4.40332 494.485 4.63799C495.007 4.86199 495.402 5.13399 495.669 5.45399C495.946 5.77399 496.085 6.05666 496.085 6.30199C496.085 6.39799 496.047 6.48332 495.973 6.55799C495.909 6.62199 495.829 6.65399 495.733 6.65399H494.533C494.415 6.65399 494.325 6.61132 494.261 6.52599C494.186 6.47266 494.063 6.37666 493.893 6.23799C493.733 6.08866 493.551 5.97132 493.349 5.88599C493.146 5.80066 492.901 5.75799 492.613 5.75799C492.218 5.75799 491.914 5.84332 491.701 6.01399C491.487 6.18466 491.381 6.40866 491.381 6.68599C491.381 6.87799 491.429 7.03799 491.525 7.16599C491.631 7.29399 491.839 7.41666 492.149 7.53399C492.458 7.64066 492.922 7.75266 493.541 7.86999C495.461 8.24332 496.421 9.08066 496.421 10.382C496.421 11.1393 496.09 11.7527 495.429 12.222C494.778 12.6913 493.866 12.926 492.693 12.926ZM500.668 12.766C500.348 12.766 500.14 12.6167 500.044 12.318L496.62 2.04599C496.61 2.01399 496.604 1.96599 496.604 1.90199C496.604 1.80599 496.636 1.72599 496.7 1.66199C496.764 1.59799 496.844 1.56599 496.94 1.56599H498.364C498.503 1.56599 498.615 1.60332 498.7 1.67799C498.786 1.75266 498.844 1.83266 498.876 1.91799L501.548 10.11L504.236 1.91799C504.258 1.83266 504.311 1.75266 504.396 1.67799C504.482 1.60332 504.594 1.56599 504.732 1.56599H506.172C506.258 1.56599 506.332 1.59799 506.396 1.66199C506.471 1.72599 506.508 1.80599 506.508 1.90199L506.476 2.04599L503.068 12.318C502.962 12.6167 502.754 12.766 502.444 12.766H500.668ZM508.585 12.766C508.478 12.766 508.388 12.7287 508.313 12.654C508.238 12.5793 508.201 12.4887 508.201 12.382V1.96599C508.201 1.84866 508.233 1.75266 508.297 1.67799C508.372 1.60332 508.468 1.56599 508.585 1.56599H512.873C514.164 1.56599 515.177 1.86999 515.913 2.47799C516.649 3.08599 517.017 3.97132 517.017 5.13399C517.017 6.28599 516.649 7.16066 515.913 7.75799C515.177 8.34466 514.164 8.63799 512.873 8.63799H510.521V12.382C510.521 12.4993 510.484 12.5953 510.409 12.67C510.334 12.734 510.238 12.766 510.121 12.766H508.585ZM512.793 6.84599C513.412 6.84599 513.881 6.70199 514.201 6.41399C514.532 6.11532 514.697 5.68332 514.697 5.11799C514.697 4.56332 514.537 4.13132 514.217 3.82199C513.908 3.51266 513.433 3.35799 512.793 3.35799H510.489V6.84599H512.793ZM519.148 12.766C519.041 12.766 518.95 12.7287 518.876 12.654C518.801 12.5793 518.764 12.4887 518.764 12.382V1.96599C518.764 1.84866 518.796 1.75266 518.86 1.67799C518.934 1.60332 519.03 1.56599 519.148 1.56599H520.396C520.598 1.56599 520.753 1.65666 520.86 1.83799L525.436 8.94199V1.96599C525.436 1.84866 525.468 1.75266 525.532 1.67799C525.606 1.60332 525.702 1.56599 525.82 1.56599H527.196C527.313 1.56599 527.409 1.60332 527.484 1.67799C527.558 1.75266 527.596 1.84866 527.596 1.96599V12.366C527.596 12.4833 527.558 12.5793 527.484 12.654C527.409 12.7287 527.318 12.766 527.212 12.766H525.948C525.734 12.766 525.574 12.6753 525.468 12.494L520.908 5.54999V12.382C520.908 12.4887 520.87 12.5793 520.796 12.654C520.732 12.7287 520.641 12.766 520.524 12.766H519.148ZM4.24 42.926C3.12 42.926 2.27733 42.5633 1.712 41.838C1.15733 41.1127 0.858667 40.1953 0.816 39.086L0.8 38.606L0.816 38.126C0.858667 37.0273 1.16267 36.1153 1.728 35.39C2.29333 34.654 3.13067 34.286 4.24 34.286C5.34933 34.286 6.21333 34.6807 6.832 35.47V31.774C6.832 31.6673 6.864 31.582 6.928 31.518C7.00267 31.4433 7.09333 31.406 7.2 31.406H7.92C8.02667 31.406 8.112 31.4433 8.176 31.518C8.25067 31.582 8.288 31.6673 8.288 31.774V42.398C8.288 42.5047 8.25067 42.5953 8.176 42.67C8.112 42.734 8.02667 42.766 7.92 42.766H7.232C7.12533 42.766 7.04 42.734 6.976 42.67C6.912 42.5953 6.88 42.5047 6.88 42.398V41.71C6.272 42.5207 5.392 42.926 4.24 42.926ZM4.544 41.678C5.29067 41.678 5.85067 41.4327 6.224 40.942C6.59733 40.4407 6.8 39.8487 6.832 39.166C6.84267 39.0487 6.848 38.846 6.848 38.558C6.848 38.2593 6.84267 38.0513 6.832 37.934C6.81067 37.2833 6.60267 36.7233 6.208 36.254C5.824 35.774 5.26933 35.534 4.544 35.534C3.776 35.534 3.216 35.774 2.864 36.254C2.512 36.734 2.32 37.3633 2.288 38.142L2.272 38.606C2.272 40.654 3.02933 41.678 4.544 41.678ZM10.94 32.878C10.8333 32.878 10.7427 32.846 10.668 32.782C10.604 32.7073 10.572 32.6167 10.572 32.51V31.678C10.572 31.5713 10.604 31.4807 10.668 31.406C10.7427 31.3313 10.8333 31.294 10.94 31.294H11.884C11.9907 31.294 12.0813 31.3313 12.156 31.406C12.2307 31.4807 12.268 31.5713 12.268 31.678V32.51C12.268 32.6167 12.2307 32.7073 12.156 32.782C12.0813 32.846 11.9907 32.878 11.884 32.878H10.94ZM11.068 42.766C10.9613 42.766 10.8707 42.734 10.796 42.67C10.732 42.5953 10.7 42.5047 10.7 42.398V34.814C10.7 34.7073 10.732 34.622 10.796 34.558C10.8707 34.4833 10.9613 34.446 11.068 34.446H11.772C11.8787 34.446 11.964 34.4833 12.028 34.558C12.1027 34.622 12.14 34.7073 12.14 34.814V42.398C12.14 42.5047 12.1027 42.5953 12.028 42.67C11.964 42.734 11.8787 42.766 11.772 42.766H11.068ZM17.3918 42.926C16.6558 42.926 16.0318 42.8087 15.5198 42.574C15.0184 42.3287 14.6451 42.0513 14.3997 41.742C14.1544 41.4327 14.0318 41.1767 14.0318 40.974C14.0318 40.8673 14.0691 40.7873 14.1438 40.734C14.2184 40.67 14.2984 40.638 14.3838 40.638H15.0558C15.1198 40.638 15.1678 40.6487 15.1998 40.67C15.2424 40.6913 15.2958 40.7393 15.3598 40.814C15.6051 41.1127 15.8771 41.3473 16.1758 41.518C16.4851 41.6887 16.8958 41.774 17.4078 41.774C17.9838 41.774 18.4424 41.6673 18.7838 41.454C19.1358 41.2407 19.3118 40.9313 19.3118 40.526C19.3118 40.2593 19.2371 40.046 19.0878 39.886C18.9384 39.726 18.6878 39.582 18.3358 39.454C17.9944 39.326 17.4824 39.1873 16.7998 39.038C15.8718 38.8353 15.2158 38.542 14.8318 38.158C14.4478 37.774 14.2558 37.278 14.2558 36.67C14.2558 36.2753 14.3731 35.8967 14.6078 35.534C14.8424 35.1607 15.1891 34.862 15.6478 34.638C16.1171 34.4033 16.6718 34.286 17.3118 34.286C17.9838 34.286 18.5544 34.398 19.0238 34.622C19.5038 34.846 19.8611 35.1073 20.0958 35.406C20.3411 35.7047 20.4638 35.9553 20.4638 36.158C20.4638 36.254 20.4264 36.334 20.3518 36.398C20.2878 36.462 20.2078 36.494 20.1118 36.494H19.5038C19.3544 36.494 19.2478 36.4353 19.1838 36.318C19.0024 36.1153 18.8478 35.9607 18.7198 35.854C18.6024 35.7367 18.4264 35.6407 18.1918 35.566C17.9571 35.4807 17.6638 35.438 17.3118 35.438C16.7891 35.438 16.3891 35.55 16.1118 35.774C15.8344 35.9873 15.6957 36.2753 15.6957 36.638C15.6957 36.862 15.7544 37.054 15.8718 37.214C15.9891 37.3633 16.2131 37.5073 16.5438 37.646C16.8744 37.774 17.3651 37.9073 18.0158 38.046C19.0291 38.2593 19.7438 38.5633 20.1598 38.958C20.5864 39.3527 20.7998 39.8593 20.7998 40.478C20.7998 40.9367 20.6664 41.3527 20.3998 41.726C20.1438 42.0993 19.7544 42.3927 19.2318 42.606C18.7198 42.8193 18.1064 42.926 17.3918 42.926ZM25.9968 42.926C24.8554 42.926 23.9648 42.606 23.3248 41.966C22.6848 41.3153 22.3488 40.4087 22.3168 39.246L22.3008 38.606L22.3168 37.966C22.3488 36.8033 22.6848 35.902 23.3248 35.262C23.9648 34.6113 24.8554 34.286 25.9968 34.286C26.7648 34.286 27.4101 34.4247 27.9328 34.702C28.4661 34.9687 28.8608 35.3047 29.1168 35.71C29.3834 36.1153 29.5274 36.5207 29.5487 36.926C29.5594 37.022 29.5221 37.1073 29.4368 37.182C29.3621 37.2567 29.2768 37.294 29.1808 37.294H28.4768C28.3701 37.294 28.2901 37.2727 28.2368 37.23C28.1834 37.1767 28.1301 37.086 28.0768 36.958C27.8848 36.4353 27.6181 36.0673 27.2768 35.854C26.9461 35.63 26.5248 35.518 26.0128 35.518C25.3408 35.518 24.8074 35.726 24.4128 36.142C24.0181 36.558 23.8048 37.1927 23.7728 38.046L23.7568 38.606L23.7728 39.166C23.8048 40.0193 24.0181 40.654 24.4128 41.07C24.8074 41.486 25.3408 41.694 26.0128 41.694C26.5354 41.694 26.9621 41.5873 27.2928 41.374C27.6234 41.15 27.8848 40.7767 28.0768 40.254C28.1301 40.126 28.1834 40.0407 28.2368 39.998C28.2901 39.9447 28.3701 39.918 28.4768 39.918H29.1808C29.2768 39.918 29.3621 39.9553 29.4368 40.03C29.5221 40.1047 29.5594 40.19 29.5487 40.286C29.5274 40.6807 29.3834 41.0807 29.1168 41.486C28.8608 41.8913 28.4661 42.2327 27.9328 42.51C27.4101 42.7873 26.7648 42.926 25.9968 42.926ZM34.8416 42.926C33.6683 42.926 32.7616 42.5953 32.1216 41.934C31.4923 41.2727 31.1563 40.3927 31.1136 39.294L31.0976 38.606L31.1136 37.918C31.1563 36.8193 31.4976 35.9393 32.1376 35.278C32.7883 34.6167 33.6896 34.286 34.8416 34.286C35.9936 34.286 36.8896 34.6167 37.5296 35.278C38.1803 35.9393 38.527 36.8193 38.5696 37.918C38.591 38.1527 38.6016 38.382 38.6016 38.606C38.6016 38.83 38.591 39.0593 38.5696 39.294C38.527 40.3927 38.1856 41.2727 37.5456 41.934C36.9163 42.5953 36.015 42.926 34.8416 42.926ZM34.8416 41.726C35.5243 41.726 36.063 41.5127 36.4576 41.086C36.863 40.6487 37.0816 40.0247 37.1136 39.214C37.1243 39.1073 37.1296 38.9047 37.1296 38.606C37.1296 38.3073 37.1243 38.1047 37.1136 37.998C37.0816 37.1873 36.863 36.5687 36.4576 36.142C36.063 35.7047 35.5243 35.486 34.8416 35.486C34.159 35.486 33.615 35.7047 33.2096 36.142C32.815 36.5687 32.6016 37.1873 32.5696 37.998L32.5536 38.606L32.5696 39.214C32.6016 40.0247 32.815 40.6487 33.2096 41.086C33.615 41.5127 34.159 41.726 34.8416 41.726ZM43.221 42.766C42.9437 42.766 42.7463 42.6327 42.629 42.366L39.653 34.942C39.6423 34.91 39.637 34.8567 39.637 34.782C39.637 34.686 39.669 34.606 39.733 34.542C39.797 34.478 39.8717 34.446 39.957 34.446H40.693C40.8637 34.446 40.9917 34.5313 41.077 34.702L43.541 41.086L46.005 34.702C46.0263 34.638 46.069 34.5793 46.133 34.526C46.2077 34.4727 46.293 34.446 46.389 34.446H47.125C47.2103 34.446 47.285 34.478 47.349 34.542C47.413 34.606 47.445 34.686 47.445 34.782L47.413 34.942L44.453 42.366C44.3357 42.6327 44.1383 42.766 43.861 42.766H43.221ZM52.1523 42.926C51.0643 42.926 50.1949 42.59 49.5443 41.918C48.8936 41.2353 48.5363 40.3073 48.4723 39.134L48.4563 38.59L48.4723 38.062C48.5363 36.91 48.8936 35.9927 49.5443 35.31C50.1949 34.6273 51.0643 34.286 52.1523 34.286C53.3256 34.286 54.2323 34.6593 54.8723 35.406C55.5229 36.1527 55.8483 37.166 55.8483 38.446V38.734C55.8483 38.8407 55.8109 38.9313 55.7362 39.006C55.6723 39.07 55.5869 39.102 55.4803 39.102H49.9283V39.246C49.9603 39.9393 50.1736 40.5313 50.5683 41.022C50.9629 41.5127 51.4856 41.758 52.1363 41.758C52.6376 41.758 53.0429 41.662 53.3523 41.47C53.6723 41.2673 53.9123 41.0593 54.0723 40.846C54.1683 40.718 54.2429 40.6433 54.2963 40.622C54.3496 40.59 54.4403 40.574 54.5683 40.574H55.2723C55.3683 40.574 55.4483 40.6007 55.5123 40.654C55.5869 40.7073 55.6243 40.7767 55.6243 40.862C55.6243 41.0967 55.4803 41.3793 55.1923 41.71C54.9043 42.0407 54.4936 42.3287 53.9603 42.574C53.4376 42.8087 52.8349 42.926 52.1523 42.926ZM54.3923 38.014V37.966C54.3923 37.2193 54.1896 36.6113 53.7843 36.142C53.3789 35.6727 52.8349 35.438 52.1523 35.438C51.4589 35.438 50.9149 35.6727 50.5203 36.142C50.1256 36.6113 49.9283 37.2193 49.9283 37.966V38.014H54.3923ZM58.1618 42.766C58.0551 42.766 57.9644 42.734 57.8898 42.67C57.8258 42.5953 57.7938 42.5047 57.7938 42.398V34.83C57.7938 34.7233 57.8258 34.6327 57.8898 34.558C57.9644 34.4833 58.0551 34.446 58.1618 34.446H58.8338C58.9511 34.446 59.0418 34.4833 59.1058 34.558C59.1804 34.622 59.2178 34.7127 59.2178 34.83V35.534C59.6551 34.8087 60.3964 34.446 61.4418 34.446H62.0658C62.1831 34.446 62.2738 34.478 62.3378 34.542C62.4018 34.606 62.4338 34.6967 62.4338 34.814V35.406C62.4338 35.5127 62.4018 35.6033 62.3378 35.678C62.2738 35.742 62.1831 35.774 62.0658 35.774H61.1538C60.5671 35.774 60.1031 35.9447 59.7618 36.286C59.4311 36.6273 59.2658 37.0913 59.2658 37.678V42.398C59.2658 42.5047 59.2284 42.5953 59.1538 42.67C59.0791 42.734 58.9884 42.766 58.8818 42.766H58.1618ZM67.6119 32.878C67.5052 32.878 67.4145 32.846 67.3399 32.782C67.2759 32.7073 67.2439 32.6167 67.2439 32.51V31.678C67.2439 31.5713 67.2759 31.4807 67.3399 31.406C67.4145 31.3313 67.5052 31.294 67.6119 31.294H68.5559C68.6625 31.294 68.7532 31.3313 68.8279 31.406C68.9025 31.4807 68.9399 31.5713 68.9399 31.678V32.51C68.9399 32.6167 68.9025 32.7073 68.8279 32.782C68.7532 32.846 68.6625 32.878 68.5559 32.878H67.6119ZM67.7399 42.766C67.6332 42.766 67.5425 42.734 67.4679 42.67C67.4039 42.5953 67.3719 42.5047 67.3719 42.398V34.814C67.3719 34.7073 67.4039 34.622 67.4679 34.558C67.5425 34.4833 67.6332 34.446 67.7399 34.446H68.4439C68.5505 34.446 68.6359 34.4833 68.6999 34.558C68.7745 34.622 68.8119 34.7073 68.8119 34.814V42.398C68.8119 42.5047 68.7745 42.5953 68.6999 42.67C68.6359 42.734 68.5505 42.766 68.4439 42.766H67.7399ZM71.5836 42.766C71.477 42.766 71.3863 42.734 71.3116 42.67C71.2476 42.5953 71.2156 42.5047 71.2156 42.398V34.814C71.2156 34.7073 71.2476 34.622 71.3116 34.558C71.3863 34.4833 71.477 34.446 71.5836 34.446H72.2716C72.389 34.446 72.4796 34.478 72.5436 34.542C72.6076 34.606 72.6396 34.6967 72.6396 34.814V35.518C72.9596 35.1233 73.3276 34.8193 73.7436 34.606C74.1703 34.3927 74.6983 34.286 75.3276 34.286C76.3516 34.286 77.1463 34.6167 77.7116 35.278C78.277 35.9287 78.5596 36.7927 78.5596 37.87V42.398C78.5596 42.5047 78.5223 42.5953 78.4476 42.67C78.3836 42.734 78.2983 42.766 78.1916 42.766H77.4556C77.349 42.766 77.2583 42.734 77.1836 42.67C77.1196 42.5953 77.0876 42.5047 77.0876 42.398V37.966C77.0876 37.198 76.901 36.6007 76.5276 36.174C76.1543 35.7473 75.621 35.534 74.9276 35.534C74.245 35.534 73.701 35.7527 73.2956 36.19C72.8903 36.6167 72.6876 37.2087 72.6876 37.966V42.398C72.6876 42.5047 72.6503 42.5953 72.5756 42.67C72.5116 42.734 72.4263 42.766 72.3196 42.766H71.5836ZM83.9625 42.766C82.3092 42.766 81.4825 41.8327 81.4825 39.966V35.678H80.2185C80.1118 35.678 80.0265 35.646 79.9625 35.582C79.8985 35.518 79.8665 35.4327 79.8665 35.326V34.814C79.8665 34.7073 79.8985 34.622 79.9625 34.558C80.0265 34.4833 80.1118 34.446 80.2185 34.446H81.4825V31.774C81.4825 31.6673 81.5145 31.582 81.5785 31.518C81.6425 31.4433 81.7278 31.406 81.8345 31.406H82.5385C82.6452 31.406 82.7305 31.4433 82.7945 31.518C82.8692 31.582 82.9065 31.6673 82.9065 31.774V34.446H84.8905C84.9972 34.446 85.0825 34.4833 85.1465 34.558C85.2212 34.622 85.2585 34.7073 85.2585 34.814V35.326C85.2585 35.4327 85.2212 35.518 85.1465 35.582C85.0825 35.646 84.9972 35.678 84.8905 35.678H82.9065V39.854C82.9065 40.398 82.9918 40.8087 83.1625 41.086C83.3438 41.3633 83.6478 41.502 84.0745 41.502H85.0505C85.1572 41.502 85.2425 41.5393 85.3065 41.614C85.3705 41.678 85.4025 41.7633 85.4025 41.87V42.398C85.4025 42.5047 85.3705 42.5953 85.3065 42.67C85.2425 42.734 85.1572 42.766 85.0505 42.766H83.9625ZM90.2616 42.926C89.1736 42.926 88.3043 42.59 87.6536 41.918C87.003 41.2353 86.6456 40.3073 86.5816 39.134L86.5656 38.59L86.5816 38.062C86.6456 36.91 87.003 35.9927 87.6536 35.31C88.3043 34.6273 89.1736 34.286 90.2616 34.286C91.435 34.286 92.3416 34.6593 92.9816 35.406C93.6323 36.1527 93.9576 37.166 93.9576 38.446V38.734C93.9576 38.8407 93.9203 38.9313 93.8456 39.006C93.7816 39.07 93.6963 39.102 93.5896 39.102H88.0376V39.246C88.0696 39.9393 88.283 40.5313 88.6776 41.022C89.0723 41.5127 89.595 41.758 90.2456 41.758C90.747 41.758 91.1523 41.662 91.4616 41.47C91.7816 41.2673 92.0216 41.0593 92.1816 40.846C92.2776 40.718 92.3523 40.6433 92.4056 40.622C92.459 40.59 92.5496 40.574 92.6776 40.574H93.3816C93.4776 40.574 93.5576 40.6007 93.6216 40.654C93.6963 40.7073 93.7336 40.7767 93.7336 40.862C93.7336 41.0967 93.5896 41.3793 93.3016 41.71C93.0136 42.0407 92.603 42.3287 92.0696 42.574C91.547 42.8087 90.9443 42.926 90.2616 42.926ZM92.5016 38.014V37.966C92.5016 37.2193 92.299 36.6113 91.8936 36.142C91.4883 35.6727 90.9443 35.438 90.2616 35.438C89.5683 35.438 89.0243 35.6727 88.6296 36.142C88.235 36.6113 88.0376 37.2193 88.0376 37.966V38.014H92.5016ZM96.2711 42.766C96.1645 42.766 96.0738 42.734 95.9991 42.67C95.9351 42.5953 95.9031 42.5047 95.9031 42.398V34.83C95.9031 34.7233 95.9351 34.6327 95.9991 34.558C96.0738 34.4833 96.1645 34.446 96.2711 34.446H96.9431C97.0605 34.446 97.1511 34.4833 97.2151 34.558C97.2898 34.622 97.3271 34.7127 97.3271 34.83V35.534C97.7645 34.8087 98.5058 34.446 99.5511 34.446H100.175C100.292 34.446 100.383 34.478 100.447 34.542C100.511 34.606 100.543 34.6967 100.543 34.814V35.406C100.543 35.5127 100.511 35.6033 100.447 35.678C100.383 35.742 100.292 35.774 100.175 35.774H99.2631C98.6765 35.774 98.2125 35.9447 97.8711 36.286C97.5405 36.6273 97.3751 37.0913 97.3751 37.678V42.398C97.3751 42.5047 97.3378 42.5953 97.2631 42.67C97.1885 42.734 97.0978 42.766 96.9911 42.766H96.2711ZM105.059 42.926C103.971 42.926 103.101 42.59 102.451 41.918C101.8 41.2353 101.443 40.3073 101.379 39.134L101.363 38.59L101.379 38.062C101.443 36.91 101.8 35.9927 102.451 35.31C103.101 34.6273 103.971 34.286 105.059 34.286C106.232 34.286 107.139 34.6593 107.779 35.406C108.429 36.1527 108.755 37.166 108.755 38.446V38.734C108.755 38.8407 108.717 38.9313 108.642 39.006C108.579 39.07 108.493 39.102 108.387 39.102H102.835V39.246C102.867 39.9393 103.08 40.5313 103.475 41.022C103.869 41.5127 104.392 41.758 105.043 41.758C105.544 41.758 105.949 41.662 106.259 41.47C106.579 41.2673 106.819 41.0593 106.979 40.846C107.075 40.718 107.149 40.6433 107.203 40.622C107.256 40.59 107.347 40.574 107.475 40.574H108.179C108.275 40.574 108.355 40.6007 108.419 40.654C108.493 40.7073 108.531 40.7767 108.531 40.862C108.531 41.0967 108.387 41.3793 108.099 41.71C107.811 42.0407 107.4 42.3287 106.867 42.574C106.344 42.8087 105.741 42.926 105.059 42.926ZM107.299 38.014V37.966C107.299 37.2193 107.096 36.6113 106.691 36.142C106.285 35.6727 105.741 35.438 105.059 35.438C104.365 35.438 103.821 35.6727 103.427 36.142C103.032 36.6113 102.835 37.2193 102.835 37.966V38.014H107.299ZM113.548 42.926C112.812 42.926 112.188 42.8087 111.676 42.574C111.175 42.3287 110.801 42.0513 110.556 41.742C110.311 41.4327 110.188 41.1767 110.188 40.974C110.188 40.8673 110.225 40.7873 110.3 40.734C110.375 40.67 110.455 40.638 110.54 40.638H111.212C111.276 40.638 111.324 40.6487 111.356 40.67C111.399 40.6913 111.452 40.7393 111.516 40.814C111.761 41.1127 112.033 41.3473 112.332 41.518C112.641 41.6887 113.052 41.774 113.564 41.774C114.14 41.774 114.599 41.6673 114.94 41.454C115.292 41.2407 115.468 40.9313 115.468 40.526C115.468 40.2593 115.393 40.046 115.244 39.886C115.095 39.726 114.844 39.582 114.492 39.454C114.151 39.326 113.639 39.1873 112.956 39.038C112.028 38.8353 111.372 38.542 110.988 38.158C110.604 37.774 110.412 37.278 110.412 36.67C110.412 36.2753 110.529 35.8967 110.764 35.534C110.999 35.1607 111.345 34.862 111.804 34.638C112.273 34.4033 112.828 34.286 113.468 34.286C114.14 34.286 114.711 34.398 115.18 34.622C115.66 34.846 116.017 35.1073 116.252 35.406C116.497 35.7047 116.62 35.9553 116.62 36.158C116.62 36.254 116.583 36.334 116.508 36.398C116.444 36.462 116.364 36.494 116.268 36.494H115.66C115.511 36.494 115.404 36.4353 115.34 36.318C115.159 36.1153 115.004 35.9607 114.876 35.854C114.759 35.7367 114.583 35.6407 114.348 35.566C114.113 35.4807 113.82 35.438 113.468 35.438C112.945 35.438 112.545 35.55 112.268 35.774C111.991 35.9873 111.852 36.2753 111.852 36.638C111.852 36.862 111.911 37.054 112.028 37.214C112.145 37.3633 112.369 37.5073 112.7 37.646C113.031 37.774 113.521 37.9073 114.172 38.046C115.185 38.2593 115.9 38.5633 116.316 38.958C116.743 39.3527 116.956 39.8593 116.956 40.478C116.956 40.9367 116.823 41.3527 116.556 41.726C116.3 42.0993 115.911 42.3927 115.388 42.606C114.876 42.8193 114.263 42.926 113.548 42.926ZM122.009 42.766C120.356 42.766 119.529 41.8327 119.529 39.966V35.678H118.265C118.159 35.678 118.073 35.646 118.009 35.582C117.945 35.518 117.913 35.4327 117.913 35.326V34.814C117.913 34.7073 117.945 34.622 118.009 34.558C118.073 34.4833 118.159 34.446 118.265 34.446H119.529V31.774C119.529 31.6673 119.561 31.582 119.625 31.518C119.689 31.4433 119.775 31.406 119.881 31.406H120.585C120.692 31.406 120.777 31.4433 120.841 31.518C120.916 31.582 120.953 31.6673 120.953 31.774V34.446H122.937C123.044 34.446 123.129 34.4833 123.193 34.558C123.268 34.622 123.305 34.7073 123.305 34.814V35.326C123.305 35.4327 123.268 35.518 123.193 35.582C123.129 35.646 123.044 35.678 122.937 35.678H120.953V39.854C120.953 40.398 121.039 40.8087 121.209 41.086C121.391 41.3633 121.695 41.502 122.121 41.502H123.097C123.204 41.502 123.289 41.5393 123.353 41.614C123.417 41.678 123.449 41.7633 123.449 41.87V42.398C123.449 42.5047 123.417 42.5953 123.353 42.67C123.289 42.734 123.204 42.766 123.097 42.766H122.009ZM125.253 32.878C125.146 32.878 125.055 32.846 124.981 32.782C124.917 32.7073 124.885 32.6167 124.885 32.51V31.678C124.885 31.5713 124.917 31.4807 124.981 31.406C125.055 31.3313 125.146 31.294 125.253 31.294H126.197C126.303 31.294 126.394 31.3313 126.469 31.406C126.543 31.4807 126.581 31.5713 126.581 31.678V32.51C126.581 32.6167 126.543 32.7073 126.469 32.782C126.394 32.846 126.303 32.878 126.197 32.878H125.253ZM125.381 42.766C125.274 42.766 125.183 42.734 125.109 42.67C125.045 42.5953 125.013 42.5047 125.013 42.398V34.814C125.013 34.7073 125.045 34.622 125.109 34.558C125.183 34.4833 125.274 34.446 125.381 34.446H126.085C126.191 34.446 126.277 34.4833 126.341 34.558C126.415 34.622 126.453 34.7073 126.453 34.814V42.398C126.453 42.5047 126.415 42.5953 126.341 42.67C126.277 42.734 126.191 42.766 126.085 42.766H125.381ZM129.224 42.766C129.118 42.766 129.027 42.734 128.952 42.67C128.888 42.5953 128.856 42.5047 128.856 42.398V34.814C128.856 34.7073 128.888 34.622 128.952 34.558C129.027 34.4833 129.118 34.446 129.224 34.446H129.912C130.03 34.446 130.12 34.478 130.184 34.542C130.248 34.606 130.28 34.6967 130.28 34.814V35.518C130.6 35.1233 130.968 34.8193 131.384 34.606C131.811 34.3927 132.339 34.286 132.968 34.286C133.992 34.286 134.787 34.6167 135.352 35.278C135.918 35.9287 136.2 36.7927 136.2 37.87V42.398C136.2 42.5047 136.163 42.5953 136.088 42.67C136.024 42.734 135.939 42.766 135.832 42.766H135.096C134.99 42.766 134.899 42.734 134.824 42.67C134.76 42.5953 134.728 42.5047 134.728 42.398V37.966C134.728 37.198 134.542 36.6007 134.168 36.174C133.795 35.7473 133.262 35.534 132.568 35.534C131.886 35.534 131.342 35.7527 130.936 36.19C130.531 36.6167 130.328 37.2087 130.328 37.966V42.398C130.328 42.5047 130.291 42.5953 130.216 42.67C130.152 42.734 130.067 42.766 129.96 42.766H129.224ZM141.889 46.286C141.003 46.286 140.294 46.1367 139.761 45.838C139.227 45.5393 138.849 45.198 138.625 44.814C138.411 44.43 138.305 44.0993 138.305 43.822C138.305 43.726 138.342 43.6407 138.417 43.566C138.491 43.502 138.577 43.47 138.673 43.47H139.377C139.473 43.47 139.553 43.4913 139.617 43.534C139.681 43.5873 139.734 43.678 139.777 43.806C140.075 44.6593 140.753 45.086 141.809 45.086C142.609 45.086 143.201 44.9153 143.585 44.574C143.969 44.2327 144.161 43.63 144.161 42.766V41.662C143.542 42.4513 142.678 42.846 141.569 42.846C140.438 42.846 139.59 42.4833 139.025 41.758C138.47 41.0327 138.177 40.1153 138.145 39.006L138.129 38.558L138.145 38.126C138.177 37.0273 138.47 36.1153 139.025 35.39C139.59 34.654 140.438 34.286 141.569 34.286C142.689 34.286 143.563 34.6967 144.193 35.518V34.83C144.193 34.7233 144.225 34.6327 144.289 34.558C144.363 34.4833 144.454 34.446 144.561 34.446H145.249C145.355 34.446 145.441 34.4833 145.505 34.558C145.579 34.6327 145.617 34.7233 145.617 34.83V42.59C145.617 45.054 144.374 46.286 141.889 46.286ZM141.857 41.598C142.603 41.598 143.163 41.358 143.537 40.878C143.921 40.3873 144.129 39.8007 144.161 39.118C144.171 39.022 144.177 38.8353 144.177 38.558C144.177 38.2913 144.171 38.11 144.161 38.014C144.129 37.3313 143.921 36.75 143.537 36.27C143.163 35.7793 142.603 35.534 141.857 35.534C141.089 35.534 140.529 35.7793 140.177 36.27C139.835 36.75 139.649 37.374 139.617 38.142L139.601 38.558L139.617 38.99C139.649 39.758 139.835 40.3873 140.177 40.878C140.529 41.358 141.089 41.598 141.857 41.598ZM152.869 42.766C152.762 42.766 152.671 42.734 152.597 42.67C152.533 42.5953 152.501 42.5047 152.501 42.398V35.678H151.125C151.018 35.678 150.927 35.646 150.853 35.582C150.789 35.518 150.757 35.4327 150.757 35.326V34.814C150.757 34.7073 150.789 34.622 150.853 34.558C150.927 34.4833 151.018 34.446 151.125 34.446H152.501V33.646C152.501 32.782 152.709 32.1153 153.125 31.646C153.551 31.166 154.245 30.926 155.205 30.926H156.149C156.255 30.926 156.341 30.9633 156.405 31.038C156.479 31.102 156.517 31.1873 156.517 31.294V31.806C156.517 31.9127 156.479 31.998 156.405 32.062C156.341 32.126 156.255 32.158 156.149 32.158H155.237C154.746 32.158 154.405 32.286 154.213 32.542C154.021 32.798 153.925 33.1927 153.925 33.726V34.446H155.989C156.095 34.446 156.181 34.4833 156.245 34.558C156.319 34.622 156.357 34.7073 156.357 34.814V35.326C156.357 35.4327 156.319 35.518 156.245 35.582C156.181 35.646 156.095 35.678 155.989 35.678H153.925V42.398C153.925 42.5047 153.887 42.5953 153.813 42.67C153.749 42.734 153.663 42.766 153.557 42.766H152.869ZM160.918 42.926C159.83 42.926 158.961 42.59 158.31 41.918C157.659 41.2353 157.302 40.3073 157.238 39.134L157.222 38.59L157.238 38.062C157.302 36.91 157.659 35.9927 158.31 35.31C158.961 34.6273 159.83 34.286 160.918 34.286C162.091 34.286 162.998 34.6593 163.638 35.406C164.289 36.1527 164.614 37.166 164.614 38.446V38.734C164.614 38.8407 164.577 38.9313 164.502 39.006C164.438 39.07 164.353 39.102 164.246 39.102H158.694V39.246C158.726 39.9393 158.939 40.5313 159.334 41.022C159.729 41.5127 160.251 41.758 160.902 41.758C161.403 41.758 161.809 41.662 162.118 41.47C162.438 41.2673 162.678 41.0593 162.838 40.846C162.934 40.718 163.009 40.6433 163.062 40.622C163.115 40.59 163.206 40.574 163.334 40.574H164.038C164.134 40.574 164.214 40.6007 164.278 40.654C164.353 40.7073 164.39 40.7767 164.39 40.862C164.39 41.0967 164.246 41.3793 163.958 41.71C163.67 42.0407 163.259 42.3287 162.726 42.574C162.203 42.8087 161.601 42.926 160.918 42.926ZM163.158 38.014V37.966C163.158 37.2193 162.955 36.6113 162.55 36.142C162.145 35.6727 161.601 35.438 160.918 35.438C160.225 35.438 159.681 35.6727 159.286 36.142C158.891 36.6113 158.694 37.2193 158.694 37.966V38.014H163.158ZM168.863 42.926C168.341 42.926 167.855 42.8193 167.407 42.606C166.97 42.3927 166.618 42.1047 166.351 41.742C166.095 41.3687 165.967 40.958 165.967 40.51C165.967 39.806 166.255 39.23 166.831 38.782C167.407 38.334 168.191 38.0353 169.183 37.886L171.583 37.55V37.086C171.583 35.9873 170.949 35.438 169.679 35.438C169.189 35.438 168.794 35.5393 168.495 35.742C168.197 35.934 167.978 36.1633 167.839 36.43C167.797 36.5367 167.749 36.6113 167.695 36.654C167.653 36.686 167.589 36.702 167.503 36.702H166.879C166.783 36.702 166.698 36.67 166.623 36.606C166.559 36.5313 166.527 36.446 166.527 36.35C166.527 36.1047 166.639 35.822 166.863 35.502C167.098 35.1713 167.455 34.8887 167.935 34.654C168.415 34.4087 169.002 34.286 169.695 34.286C170.89 34.286 171.743 34.5633 172.255 35.118C172.778 35.6727 173.039 36.366 173.039 37.198V42.398C173.039 42.5047 173.002 42.5953 172.927 42.67C172.863 42.734 172.778 42.766 172.671 42.766H171.967C171.861 42.766 171.775 42.734 171.711 42.67C171.647 42.5953 171.615 42.5047 171.615 42.398V41.694C171.381 42.046 171.039 42.3393 170.591 42.574C170.143 42.8087 169.567 42.926 168.863 42.926ZM169.183 41.758C169.887 41.758 170.463 41.5287 170.911 41.07C171.359 40.6113 171.583 39.9447 171.583 39.07V38.622L169.711 38.894C168.943 39.0007 168.362 39.182 167.967 39.438C167.573 39.694 167.375 40.014 167.375 40.398C167.375 40.8353 167.551 41.1713 167.903 41.406C168.266 41.6407 168.693 41.758 169.183 41.758ZM178.478 42.766C176.825 42.766 175.998 41.8327 175.998 39.966V35.678H174.734C174.627 35.678 174.542 35.646 174.478 35.582C174.414 35.518 174.382 35.4327 174.382 35.326V34.814C174.382 34.7073 174.414 34.622 174.478 34.558C174.542 34.4833 174.627 34.446 174.734 34.446H175.998V31.774C175.998 31.6673 176.03 31.582 176.094 31.518C176.158 31.4433 176.243 31.406 176.35 31.406H177.054C177.161 31.406 177.246 31.4433 177.31 31.518C177.385 31.582 177.422 31.6673 177.422 31.774V34.446H179.406C179.513 34.446 179.598 34.4833 179.662 34.558C179.737 34.622 179.774 34.7073 179.774 34.814V35.326C179.774 35.4327 179.737 35.518 179.662 35.582C179.598 35.646 179.513 35.678 179.406 35.678H177.422V39.854C177.422 40.398 177.507 40.8087 177.678 41.086C177.859 41.3633 178.163 41.502 178.59 41.502H179.566C179.673 41.502 179.758 41.5393 179.822 41.614C179.886 41.678 179.918 41.7633 179.918 41.87V42.398C179.918 42.5047 179.886 42.5953 179.822 42.67C179.758 42.734 179.673 42.766 179.566 42.766H178.478ZM184.585 42.926C183.572 42.926 182.788 42.6007 182.233 41.95C181.679 41.2887 181.401 40.414 181.401 39.326V34.814C181.401 34.7073 181.433 34.622 181.497 34.558C181.572 34.4833 181.663 34.446 181.769 34.446H182.505C182.612 34.446 182.697 34.4833 182.761 34.558C182.836 34.622 182.873 34.7073 182.873 34.814V39.246C182.873 40.8673 183.577 41.678 184.985 41.678C185.668 41.678 186.207 41.4647 186.601 41.038C187.007 40.6007 187.209 40.0033 187.209 39.246V34.814C187.209 34.7073 187.241 34.622 187.305 34.558C187.38 34.4833 187.471 34.446 187.577 34.446H188.313C188.42 34.446 188.505 34.4833 188.569 34.558C188.644 34.622 188.681 34.7073 188.681 34.814V42.398C188.681 42.5047 188.644 42.5953 188.569 42.67C188.505 42.734 188.42 42.766 188.313 42.766H187.625C187.519 42.766 187.428 42.734 187.353 42.67C187.289 42.5953 187.257 42.5047 187.257 42.398V41.678C186.948 42.094 186.585 42.4087 186.169 42.622C185.753 42.8247 185.225 42.926 184.585 42.926ZM191.443 42.766C191.336 42.766 191.246 42.734 191.171 42.67C191.107 42.5953 191.075 42.5047 191.075 42.398V34.83C191.075 34.7233 191.107 34.6327 191.171 34.558C191.246 34.4833 191.336 34.446 191.443 34.446H192.115C192.232 34.446 192.323 34.4833 192.387 34.558C192.462 34.622 192.499 34.7127 192.499 34.83V35.534C192.936 34.8087 193.678 34.446 194.723 34.446H195.347C195.464 34.446 195.555 34.478 195.619 34.542C195.683 34.606 195.715 34.6967 195.715 34.814V35.406C195.715 35.5127 195.683 35.6033 195.619 35.678C195.555 35.742 195.464 35.774 195.347 35.774H194.435C193.848 35.774 193.384 35.9447 193.043 36.286C192.712 36.6273 192.547 37.0913 192.547 37.678V42.398C192.547 42.5047 192.51 42.5953 192.435 42.67C192.36 42.734 192.27 42.766 192.163 42.766H191.443ZM200.23 42.926C199.142 42.926 198.273 42.59 197.622 41.918C196.972 41.2353 196.614 40.3073 196.55 39.134L196.534 38.59L196.55 38.062C196.614 36.91 196.972 35.9927 197.622 35.31C198.273 34.6273 199.142 34.286 200.23 34.286C201.404 34.286 202.31 34.6593 202.95 35.406C203.601 36.1527 203.926 37.166 203.926 38.446V38.734C203.926 38.8407 203.889 38.9313 203.814 39.006C203.75 39.07 203.665 39.102 203.558 39.102H198.006V39.246C198.038 39.9393 198.252 40.5313 198.646 41.022C199.041 41.5127 199.564 41.758 200.214 41.758C200.716 41.758 201.121 41.662 201.43 41.47C201.75 41.2673 201.99 41.0593 202.15 40.846C202.246 40.718 202.321 40.6433 202.374 40.622C202.428 40.59 202.518 40.574 202.646 40.574H203.35C203.446 40.574 203.526 40.6007 203.59 40.654C203.665 40.7073 203.702 40.7767 203.702 40.862C203.702 41.0967 203.558 41.3793 203.27 41.71C202.982 42.0407 202.572 42.3287 202.038 42.574C201.516 42.8087 200.913 42.926 200.23 42.926ZM202.47 38.014V37.966C202.47 37.2193 202.268 36.6113 201.862 36.142C201.457 35.6727 200.913 35.438 200.23 35.438C199.537 35.438 198.993 35.6727 198.598 36.142C198.204 36.6113 198.006 37.2193 198.006 37.966V38.014H202.47ZM208.72 42.926C207.984 42.926 207.36 42.8087 206.848 42.574C206.347 42.3287 205.973 42.0513 205.728 41.742C205.483 41.4327 205.36 41.1767 205.36 40.974C205.36 40.8673 205.397 40.7873 205.472 40.734C205.547 40.67 205.627 40.638 205.712 40.638H206.384C206.448 40.638 206.496 40.6487 206.528 40.67C206.571 40.6913 206.624 40.7393 206.688 40.814C206.933 41.1127 207.205 41.3473 207.504 41.518C207.813 41.6887 208.224 41.774 208.736 41.774C209.312 41.774 209.771 41.6673 210.112 41.454C210.464 41.2407 210.64 40.9313 210.64 40.526C210.64 40.2593 210.565 40.046 210.416 39.886C210.267 39.726 210.016 39.582 209.664 39.454C209.323 39.326 208.811 39.1873 208.128 39.038C207.2 38.8353 206.544 38.542 206.16 38.158C205.776 37.774 205.584 37.278 205.584 36.67C205.584 36.2753 205.701 35.8967 205.936 35.534C206.171 35.1607 206.517 34.862 206.976 34.638C207.445 34.4033 208 34.286 208.64 34.286C209.312 34.286 209.883 34.398 210.352 34.622C210.832 34.846 211.189 35.1073 211.424 35.406C211.669 35.7047 211.792 35.9553 211.792 36.158C211.792 36.254 211.755 36.334 211.68 36.398C211.616 36.462 211.536 36.494 211.44 36.494H210.832C210.683 36.494 210.576 36.4353 210.512 36.318C210.331 36.1153 210.176 35.9607 210.048 35.854C209.931 35.7367 209.755 35.6407 209.52 35.566C209.285 35.4807 208.992 35.438 208.64 35.438C208.117 35.438 207.717 35.55 207.44 35.774C207.163 35.9873 207.024 36.2753 207.024 36.638C207.024 36.862 207.083 37.054 207.2 37.214C207.317 37.3633 207.541 37.5073 207.872 37.646C208.203 37.774 208.693 37.9073 209.344 38.046C210.357 38.2593 211.072 38.5633 211.488 38.958C211.915 39.3527 212.128 39.8593 212.128 40.478C212.128 40.9367 211.995 41.3527 211.728 41.726C211.472 42.0993 211.083 42.3927 210.56 42.606C210.048 42.8193 209.435 42.926 208.72 42.926ZM218.838 42.766C218.731 42.766 218.64 42.734 218.566 42.67C218.502 42.5953 218.47 42.5047 218.47 42.398V35.678H217.094C216.987 35.678 216.896 35.646 216.822 35.582C216.758 35.518 216.726 35.4327 216.726 35.326V34.814C216.726 34.7073 216.758 34.622 216.822 34.558C216.896 34.4833 216.987 34.446 217.094 34.446H218.47V33.646C218.47 32.782 218.678 32.1153 219.094 31.646C219.52 31.166 220.214 30.926 221.174 30.926H222.118C222.224 30.926 222.31 30.9633 222.374 31.038C222.448 31.102 222.486 31.1873 222.486 31.294V31.806C222.486 31.9127 222.448 31.998 222.374 32.062C222.31 32.126 222.224 32.158 222.118 32.158H221.206C220.715 32.158 220.374 32.286 220.182 32.542C219.99 32.798 219.894 33.1927 219.894 33.726V34.446H221.958C222.064 34.446 222.15 34.4833 222.214 34.558C222.288 34.622 222.326 34.7073 222.326 34.814V35.326C222.326 35.4327 222.288 35.518 222.214 35.582C222.15 35.646 222.064 35.678 221.958 35.678H219.894V42.398C219.894 42.5047 219.856 42.5953 219.782 42.67C219.718 42.734 219.632 42.766 219.526 42.766H218.838ZM224.115 42.766C224.008 42.766 223.918 42.734 223.843 42.67C223.779 42.5953 223.747 42.5047 223.747 42.398V34.83C223.747 34.7233 223.779 34.6327 223.843 34.558C223.918 34.4833 224.008 34.446 224.115 34.446H224.787C224.904 34.446 224.995 34.4833 225.059 34.558C225.134 34.622 225.171 34.7127 225.171 34.83V35.534C225.608 34.8087 226.35 34.446 227.395 34.446H228.019C228.136 34.446 228.227 34.478 228.291 34.542C228.355 34.606 228.387 34.6967 228.387 34.814V35.406C228.387 35.5127 228.355 35.6033 228.291 35.678C228.227 35.742 228.136 35.774 228.019 35.774H227.107C226.52 35.774 226.056 35.9447 225.715 36.286C225.384 36.6273 225.219 37.0913 225.219 37.678V42.398C225.219 42.5047 225.182 42.5953 225.107 42.67C225.032 42.734 224.942 42.766 224.835 42.766H224.115ZM232.982 42.926C231.809 42.926 230.902 42.5953 230.262 41.934C229.633 41.2727 229.297 40.3927 229.254 39.294L229.238 38.606L229.254 37.918C229.297 36.8193 229.638 35.9393 230.278 35.278C230.929 34.6167 231.83 34.286 232.982 34.286C234.134 34.286 235.03 34.6167 235.67 35.278C236.321 35.9393 236.668 36.8193 236.71 37.918C236.732 38.1527 236.742 38.382 236.742 38.606C236.742 38.83 236.732 39.0593 236.71 39.294C236.668 40.3927 236.326 41.2727 235.686 41.934C235.057 42.5953 234.156 42.926 232.982 42.926ZM232.982 41.726C233.665 41.726 234.204 41.5127 234.598 41.086C235.004 40.6487 235.222 40.0247 235.254 39.214C235.265 39.1073 235.27 38.9047 235.27 38.606C235.27 38.3073 235.265 38.1047 235.254 37.998C235.222 37.1873 235.004 36.5687 234.598 36.142C234.204 35.7047 233.665 35.486 232.982 35.486C232.3 35.486 231.756 35.7047 231.35 36.142C230.956 36.5687 230.742 37.1873 230.71 37.998L230.694 38.606L230.71 39.214C230.742 40.0247 230.956 40.6487 231.35 41.086C231.756 41.5127 232.3 41.726 232.982 41.726ZM239.131 42.766C239.024 42.766 238.933 42.734 238.859 42.67C238.795 42.5953 238.763 42.5047 238.763 42.398V34.814C238.763 34.7073 238.795 34.622 238.859 34.558C238.933 34.4833 239.024 34.446 239.131 34.446H239.803C239.909 34.446 239.995 34.4833 240.059 34.558C240.123 34.622 240.155 34.7073 240.155 34.814V35.358C240.731 34.6433 241.509 34.286 242.491 34.286C243.664 34.286 244.496 34.7767 244.987 35.758C245.243 35.31 245.605 34.9527 246.075 34.686C246.555 34.4193 247.088 34.286 247.675 34.286C248.549 34.286 249.264 34.5847 249.819 35.182C250.373 35.7793 250.651 36.6433 250.651 37.774V42.398C250.651 42.5047 250.613 42.5953 250.539 42.67C250.475 42.734 250.389 42.766 250.283 42.766H249.595C249.488 42.766 249.397 42.734 249.323 42.67C249.259 42.5953 249.227 42.5047 249.227 42.398V37.918C249.227 37.0647 249.051 36.4567 248.699 36.094C248.347 35.7207 247.883 35.534 247.307 35.534C246.795 35.534 246.352 35.726 245.979 36.11C245.616 36.4833 245.435 37.086 245.435 37.918V42.398C245.435 42.5047 245.397 42.5953 245.323 42.67C245.259 42.734 245.173 42.766 245.067 42.766H244.363C244.256 42.766 244.165 42.734 244.091 42.67C244.027 42.5953 243.995 42.5047 243.995 42.398V37.918C243.995 37.0753 243.808 36.4673 243.435 36.094C243.072 35.7207 242.619 35.534 242.075 35.534C241.563 35.534 241.12 35.7207 240.747 36.094C240.384 36.4673 240.203 37.07 240.203 37.902V42.398C240.203 42.5047 240.165 42.5953 240.091 42.67C240.027 42.734 239.941 42.766 239.835 42.766H239.131ZM260.007 42.926C258.994 42.926 258.21 42.6007 257.655 41.95C257.1 41.2887 256.823 40.414 256.823 39.326V34.814C256.823 34.7073 256.855 34.622 256.919 34.558C256.994 34.4833 257.084 34.446 257.191 34.446H257.927C258.034 34.446 258.119 34.4833 258.183 34.558C258.258 34.622 258.295 34.7073 258.295 34.814V39.246C258.295 40.8673 258.999 41.678 260.407 41.678C261.09 41.678 261.628 41.4647 262.023 41.038C262.428 40.6007 262.631 40.0033 262.631 39.246V34.814C262.631 34.7073 262.663 34.622 262.727 34.558C262.802 34.4833 262.892 34.446 262.999 34.446H263.735C263.842 34.446 263.927 34.4833 263.991 34.558C264.066 34.622 264.103 34.7073 264.103 34.814V42.398C264.103 42.5047 264.066 42.5953 263.991 42.67C263.927 42.734 263.842 42.766 263.735 42.766H263.047C262.94 42.766 262.85 42.734 262.775 42.67C262.711 42.5953 262.679 42.5047 262.679 42.398V41.678C262.37 42.094 262.007 42.4087 261.591 42.622C261.175 42.8247 260.647 42.926 260.007 42.926ZM269.345 42.926C268.609 42.926 267.985 42.8087 267.473 42.574C266.972 42.3287 266.598 42.0513 266.353 41.742C266.108 41.4327 265.985 41.1767 265.985 40.974C265.985 40.8673 266.022 40.7873 266.097 40.734C266.172 40.67 266.252 40.638 266.337 40.638H267.009C267.073 40.638 267.121 40.6487 267.153 40.67C267.196 40.6913 267.249 40.7393 267.313 40.814C267.558 41.1127 267.83 41.3473 268.129 41.518C268.438 41.6887 268.849 41.774 269.361 41.774C269.937 41.774 270.396 41.6673 270.737 41.454C271.089 41.2407 271.265 40.9313 271.265 40.526C271.265 40.2593 271.19 40.046 271.041 39.886C270.892 39.726 270.641 39.582 270.289 39.454C269.948 39.326 269.436 39.1873 268.753 39.038C267.825 38.8353 267.169 38.542 266.785 38.158C266.401 37.774 266.209 37.278 266.209 36.67C266.209 36.2753 266.326 35.8967 266.561 35.534C266.796 35.1607 267.142 34.862 267.601 34.638C268.07 34.4033 268.625 34.286 269.265 34.286C269.937 34.286 270.508 34.398 270.977 34.622C271.457 34.846 271.814 35.1073 272.049 35.406C272.294 35.7047 272.417 35.9553 272.417 36.158C272.417 36.254 272.38 36.334 272.305 36.398C272.241 36.462 272.161 36.494 272.065 36.494H271.457C271.308 36.494 271.201 36.4353 271.137 36.318C270.956 36.1153 270.801 35.9607 270.673 35.854C270.556 35.7367 270.38 35.6407 270.145 35.566C269.91 35.4807 269.617 35.438 269.265 35.438C268.742 35.438 268.342 35.55 268.065 35.774C267.788 35.9873 267.649 36.2753 267.649 36.638C267.649 36.862 267.708 37.054 267.825 37.214C267.942 37.3633 268.166 37.5073 268.497 37.646C268.828 37.774 269.318 37.9073 269.969 38.046C270.982 38.2593 271.697 38.5633 272.113 38.958C272.54 39.3527 272.753 39.8593 272.753 40.478C272.753 40.9367 272.62 41.3527 272.353 41.726C272.097 42.0993 271.708 42.3927 271.185 42.606C270.673 42.8193 270.06 42.926 269.345 42.926ZM274.878 42.766C274.771 42.766 274.681 42.734 274.606 42.67C274.542 42.5953 274.51 42.5047 274.51 42.398V41.294C274.51 41.1873 274.542 41.0967 274.606 41.022C274.681 40.9473 274.771 40.91 274.878 40.91H275.982C276.089 40.91 276.174 40.9473 276.238 41.022C276.313 41.0967 276.35 41.1873 276.35 41.294V42.398C276.35 42.5047 276.313 42.5953 276.238 42.67C276.174 42.734 276.089 42.766 275.982 42.766H274.878Z" fill="#4F5665"/>
</svg>
