<svg width="512" height="117" viewBox="0 0 512 117" fill="none" xmlns="http://www.w3.org/2000/svg">
<path d="M8.65 36.7661C7.68333 36.7661 7.08333 36.2661 6.85 35.2661L0.95 3.21611L0.9 2.81611C0.9 2.51611 1 2.26611 1.2 2.06611C1.4 1.86611 1.65 1.76611 1.95 1.76611H6.45C6.88333 1.76611 7.2 1.84944 7.4 2.01611C7.6 2.14944 7.73333 2.39945 7.8 2.76611L11.95 25.2661L16.4 10.7661C16.7333 9.93278 17.2833 9.51611 18.05 9.51611H20.8C21.2333 9.51611 21.5833 9.64945 21.85 9.91611C22.1167 10.1494 22.3 10.4328 22.4 10.7661L26.9 25.2661L31 2.76611C31.1 2.09944 31.5667 1.76611 32.4 1.76611H36.9C37.1667 1.76611 37.4 1.86611 37.6 2.06611C37.8 2.26611 37.9 2.51611 37.9 2.81611C37.9 2.98278 37.8833 3.11611 37.85 3.21611L31.95 35.2661C31.8833 35.7328 31.6833 36.0994 31.35 36.3661C31.05 36.6328 30.65 36.7661 30.15 36.7661H26.75C26.2833 36.7661 25.9 36.6494 25.6 36.4161C25.3 36.1494 25.1 35.8494 25 35.5161L19.4 18.9161L13.8 35.5161C13.5333 36.3494 12.95 36.7661 12.05 36.7661H8.65ZM49.5961 37.2661C47.8961 37.2661 46.3294 36.9328 44.8961 36.2661C43.4961 35.5661 42.3794 34.6328 41.5461 33.4661C40.7461 32.2994 40.3461 31.0161 40.3461 29.6161C40.3461 27.3494 41.2628 25.5161 43.0961 24.1161C44.9294 22.7161 47.4461 21.7661 50.6461 21.2661L57.4961 20.2661V19.2161C57.4961 17.7828 57.1294 16.6994 56.3961 15.9661C55.6628 15.2328 54.4961 14.8661 52.8961 14.8661C51.7961 14.8661 50.9128 15.0661 50.2461 15.4661C49.5794 15.8661 49.0294 16.2828 48.5961 16.7161C48.1961 17.1161 47.9294 17.3828 47.7961 17.5161C47.6628 17.9161 47.4128 18.1161 47.0461 18.1161H43.1461C42.8461 18.1161 42.5794 18.0161 42.3461 17.8161C42.1461 17.6161 42.0461 17.3494 42.0461 17.0161C42.0794 16.1828 42.4794 15.2494 43.2461 14.2161C44.0461 13.1494 45.2628 12.2328 46.8961 11.4661C48.5294 10.6661 50.5461 10.2661 52.9461 10.2661C56.8794 10.2661 59.7461 11.1494 61.5461 12.9161C63.3461 14.6828 64.2461 16.9994 64.2461 19.8661V35.5661C64.2461 35.8994 64.1294 36.1828 63.8961 36.4161C63.6961 36.6494 63.4128 36.7661 63.0461 36.7661H58.8961C58.5628 36.7661 58.2794 36.6494 58.0461 36.4161C57.8128 36.1828 57.6961 35.8994 57.6961 35.5661V33.6161C56.9628 34.6828 55.9294 35.5661 54.5961 36.2661C53.2628 36.9328 51.5961 37.2661 49.5961 37.2661ZM51.2961 32.4661C53.1294 32.4661 54.6294 31.8661 55.7961 30.6661C56.9628 29.4661 57.5461 27.7328 57.5461 25.4661V24.4661L52.5461 25.2661C48.7128 25.8661 46.7961 27.1494 46.7961 29.1161C46.7961 30.1828 47.2294 31.0161 48.0961 31.6161C48.9961 32.1828 50.0628 32.4661 51.2961 32.4661ZM71.8594 36.7661C71.526 36.7661 71.2427 36.6494 71.0094 36.4161C70.776 36.1828 70.6594 35.8994 70.6594 35.5661V11.9661C70.6594 11.5994 70.776 11.3161 71.0094 11.1161C71.2427 10.8828 71.526 10.7661 71.8594 10.7661H76.0094C76.376 10.7661 76.6594 10.8828 76.8594 11.1161C77.0927 11.3161 77.2094 11.5994 77.2094 11.9661V14.0161C79.2427 11.5161 82.026 10.2661 85.5594 10.2661C88.626 10.2661 91.0594 11.2661 92.8594 13.2661C94.6594 15.2661 95.5594 18.0161 95.5594 21.5161V35.5661C95.5594 35.8994 95.4427 36.1828 95.2094 36.4161C95.0094 36.6494 94.726 36.7661 94.3594 36.7661H89.8594C89.526 36.7661 89.2427 36.6494 89.0094 36.4161C88.776 36.1828 88.6594 35.8994 88.6594 35.5661V21.8161C88.6594 19.8828 88.176 18.3828 87.2094 17.3161C86.276 16.2161 84.926 15.6661 83.1594 15.6661C81.4594 15.6661 80.0927 16.2161 79.0594 17.3161C78.026 18.4161 77.5094 19.9161 77.5094 21.8161V35.5661C77.5094 35.8994 77.3927 36.1828 77.1594 36.4161C76.9594 36.6494 76.676 36.7661 76.3094 36.7661H71.8594ZM113.416 36.7661C110.383 36.7661 108.1 35.9828 106.566 34.4161C105.033 32.8161 104.266 30.4828 104.266 27.4161V16.1161H100.316C99.9831 16.1161 99.6997 15.9994 99.4664 15.7661C99.2331 15.5328 99.1164 15.2494 99.1164 14.9161V11.9661C99.1164 11.6328 99.2331 11.3494 99.4664 11.1161C99.6997 10.8828 99.9831 10.7661 100.316 10.7661H104.266V2.46611C104.266 2.09944 104.383 1.81611 104.616 1.61611C104.85 1.38278 105.133 1.26611 105.466 1.26611H109.616C109.983 1.26611 110.266 1.38278 110.466 1.61611C110.7 1.81611 110.816 2.09944 110.816 2.46611V10.7661H117.066C117.4 10.7661 117.683 10.8828 117.916 11.1161C118.15 11.3494 118.266 11.6328 118.266 11.9661V14.9161C118.266 15.2494 118.15 15.5328 117.916 15.7661C117.683 15.9994 117.4 16.1161 117.066 16.1161H110.816V26.8661C110.816 28.2994 111.066 29.3828 111.566 30.1161C112.066 30.8494 112.883 31.2161 114.016 31.2161H117.516C117.883 31.2161 118.166 31.3328 118.366 31.5661C118.6 31.7661 118.716 32.0494 118.716 32.4161V35.5661C118.716 35.8994 118.6 36.1828 118.366 36.4161C118.166 36.6494 117.883 36.7661 117.516 36.7661H113.416ZM142.077 37.2661C140.377 37.2661 138.81 36.9328 137.377 36.2661C135.977 35.5661 134.86 34.6328 134.027 33.4661C133.227 32.2994 132.827 31.0161 132.827 29.6161C132.827 27.3494 133.743 25.5161 135.577 24.1161C137.41 22.7161 139.927 21.7661 143.127 21.2661L149.977 20.2661V19.2161C149.977 17.7828 149.61 16.6994 148.877 15.9661C148.143 15.2328 146.977 14.8661 145.377 14.8661C144.277 14.8661 143.393 15.0661 142.727 15.4661C142.06 15.8661 141.51 16.2828 141.077 16.7161C140.677 17.1161 140.41 17.3828 140.277 17.5161C140.143 17.9161 139.893 18.1161 139.527 18.1161H135.627C135.327 18.1161 135.06 18.0161 134.827 17.8161C134.627 17.6161 134.527 17.3494 134.527 17.0161C134.56 16.1828 134.96 15.2494 135.727 14.2161C136.527 13.1494 137.743 12.2328 139.377 11.4661C141.01 10.6661 143.027 10.2661 145.427 10.2661C149.36 10.2661 152.227 11.1494 154.027 12.9161C155.827 14.6828 156.727 16.9994 156.727 19.8661V35.5661C156.727 35.8994 156.61 36.1828 156.377 36.4161C156.177 36.6494 155.893 36.7661 155.527 36.7661H151.377C151.043 36.7661 150.76 36.6494 150.527 36.4161C150.293 36.1828 150.177 35.8994 150.177 35.5661V33.6161C149.443 34.6828 148.41 35.5661 147.077 36.2661C145.743 36.9328 144.077 37.2661 142.077 37.2661ZM143.777 32.4661C145.61 32.4661 147.11 31.8661 148.277 30.6661C149.443 29.4661 150.027 27.7328 150.027 25.4661V24.4661L145.027 25.2661C141.193 25.8661 139.277 27.1494 139.277 29.1161C139.277 30.1828 139.71 31.0161 140.577 31.6161C141.477 32.1828 142.543 32.4661 143.777 32.4661ZM164.34 36.7661C164.007 36.7661 163.723 36.6494 163.49 36.4161C163.257 36.1828 163.14 35.8994 163.14 35.5661V11.9661C163.14 11.5994 163.257 11.3161 163.49 11.1161C163.723 10.8828 164.007 10.7661 164.34 10.7661H168.49C168.857 10.7661 169.14 10.8828 169.34 11.1161C169.573 11.3161 169.69 11.5994 169.69 11.9661V14.0161C171.723 11.5161 174.507 10.2661 178.04 10.2661C181.107 10.2661 183.54 11.2661 185.34 13.2661C187.14 15.2661 188.04 18.0161 188.04 21.5161V35.5661C188.04 35.8994 187.923 36.1828 187.69 36.4161C187.49 36.6494 187.207 36.7661 186.84 36.7661H182.34C182.007 36.7661 181.723 36.6494 181.49 36.4161C181.257 36.1828 181.14 35.8994 181.14 35.5661V21.8161C181.14 19.8828 180.657 18.3828 179.69 17.3161C178.757 16.2161 177.407 15.6661 175.64 15.6661C173.94 15.6661 172.573 16.2161 171.54 17.3161C170.507 18.4161 169.99 19.9161 169.99 21.8161V35.5661C169.99 35.8994 169.873 36.1828 169.64 36.4161C169.44 36.6494 169.157 36.7661 168.79 36.7661H164.34ZM198.211 46.2661C197.944 46.2661 197.694 46.1661 197.461 45.9661C197.261 45.7661 197.161 45.5328 197.161 45.2661C197.161 45.0328 197.228 44.7661 197.361 44.4661L201.311 35.2161L191.711 12.5661C191.578 12.2661 191.511 12.0328 191.511 11.8661C191.544 11.5661 191.661 11.3161 191.861 11.1161C192.061 10.8828 192.311 10.7661 192.611 10.7661H196.761C197.361 10.7661 197.794 11.0828 198.061 11.7161L204.711 28.0161L211.461 11.7161C211.794 11.0828 212.261 10.7661 212.861 10.7661H216.911C217.211 10.7661 217.461 10.8661 217.661 11.0661C217.861 11.2661 217.961 11.4994 217.961 11.7661C217.961 11.9994 217.894 12.2661 217.761 12.5661L203.611 45.3161C203.344 45.9494 202.878 46.2661 202.211 46.2661H198.211ZM234.071 36.7661C231.037 36.7661 228.754 35.9828 227.221 34.4161C225.687 32.8161 224.921 30.4828 224.921 27.4161V16.1161H220.971C220.637 16.1161 220.354 15.9994 220.121 15.7661C219.887 15.5328 219.771 15.2494 219.771 14.9161V11.9661C219.771 11.6328 219.887 11.3494 220.121 11.1161C220.354 10.8828 220.637 10.7661 220.971 10.7661H224.921V2.46611C224.921 2.09944 225.037 1.81611 225.271 1.61611C225.504 1.38278 225.787 1.26611 226.121 1.26611H230.271C230.637 1.26611 230.921 1.38278 231.121 1.61611C231.354 1.81611 231.471 2.09944 231.471 2.46611V10.7661H237.721C238.054 10.7661 238.337 10.8828 238.571 11.1161C238.804 11.3494 238.921 11.6328 238.921 11.9661V14.9161C238.921 15.2494 238.804 15.5328 238.571 15.7661C238.337 15.9994 238.054 16.1161 237.721 16.1161H231.471V26.8661C231.471 28.2994 231.721 29.3828 232.221 30.1161C232.721 30.8494 233.537 31.2161 234.671 31.2161H238.171C238.537 31.2161 238.821 31.3328 239.021 31.5661C239.254 31.7661 239.371 32.0494 239.371 32.4161V35.5661C239.371 35.8994 239.254 36.1828 239.021 36.4161C238.821 36.6494 238.537 36.7661 238.171 36.7661H234.071ZM245.054 36.7661C244.721 36.7661 244.437 36.6494 244.204 36.4161C243.971 36.1828 243.854 35.8994 243.854 35.5661V2.46611C243.854 2.09944 243.971 1.81611 244.204 1.61611C244.437 1.38278 244.721 1.26611 245.054 1.26611H249.604C249.971 1.26611 250.254 1.38278 250.454 1.61611C250.687 1.81611 250.804 2.09944 250.804 2.46611V13.8661C252.804 11.4661 255.487 10.2661 258.854 10.2661C261.921 10.2661 264.371 11.2828 266.204 13.3161C268.037 15.3161 268.954 18.0494 268.954 21.5161V35.5661C268.954 35.8994 268.837 36.1828 268.604 36.4161C268.404 36.6494 268.121 36.7661 267.754 36.7661H263.204C262.837 36.7661 262.537 36.6494 262.304 36.4161C262.071 36.1828 261.954 35.8994 261.954 35.5661V21.8161C261.954 19.8828 261.471 18.3828 260.504 17.3161C259.571 16.2161 258.221 15.6661 256.454 15.6661C254.754 15.6661 253.387 16.2161 252.354 17.3161C251.321 18.4161 250.804 19.9161 250.804 21.8161V35.5661C250.804 35.8994 250.687 36.1828 250.454 36.4161C250.254 36.6494 249.971 36.7661 249.604 36.7661H245.054ZM276.298 6.51611C275.965 6.51611 275.681 6.39945 275.448 6.16611C275.215 5.93278 275.098 5.64945 275.098 5.31611V1.66611C275.098 1.29944 275.215 0.999444 275.448 0.766112C275.681 0.532778 275.965 0.41611 276.298 0.41611H280.898C281.265 0.41611 281.565 0.532778 281.798 0.766112C282.031 0.999444 282.148 1.29944 282.148 1.66611V5.31611C282.148 5.64945 282.015 5.93278 281.748 6.16611C281.515 6.39945 281.231 6.51611 280.898 6.51611H276.298ZM276.498 36.7661C276.165 36.7661 275.881 36.6494 275.648 36.4161C275.415 36.1828 275.298 35.8994 275.298 35.5661V11.9661C275.298 11.5994 275.415 11.3161 275.648 11.1161C275.881 10.8828 276.165 10.7661 276.498 10.7661H280.748C281.081 10.7661 281.365 10.8828 281.598 11.1161C281.831 11.3494 281.948 11.6328 281.948 11.9661V35.5661C281.948 35.8994 281.831 36.1828 281.598 36.4161C281.365 36.6494 281.081 36.7661 280.748 36.7661H276.498ZM289.73 36.7661C289.397 36.7661 289.114 36.6494 288.88 36.4161C288.647 36.1828 288.53 35.8994 288.53 35.5661V11.9661C288.53 11.5994 288.647 11.3161 288.88 11.1161C289.114 10.8828 289.397 10.7661 289.73 10.7661H293.88C294.247 10.7661 294.53 10.8828 294.73 11.1161C294.964 11.3161 295.08 11.5994 295.08 11.9661V14.0161C297.114 11.5161 299.897 10.2661 303.43 10.2661C306.497 10.2661 308.93 11.2661 310.73 13.2661C312.53 15.2661 313.43 18.0161 313.43 21.5161V35.5661C313.43 35.8994 313.314 36.1828 313.08 36.4161C312.88 36.6494 312.597 36.7661 312.23 36.7661H307.73C307.397 36.7661 307.114 36.6494 306.88 36.4161C306.647 36.1828 306.53 35.8994 306.53 35.5661V21.8161C306.53 19.8828 306.047 18.3828 305.08 17.3161C304.147 16.2161 302.797 15.6661 301.03 15.6661C299.33 15.6661 297.964 16.2161 296.93 17.3161C295.897 18.4161 295.38 19.9161 295.38 21.8161V35.5661C295.38 35.8994 295.264 36.1828 295.03 36.4161C294.83 36.6494 294.547 36.7661 294.18 36.7661H289.73ZM331.53 47.7661C328.564 47.7661 326.164 47.2661 324.33 46.2661C322.497 45.2994 321.197 44.1828 320.43 42.9161C319.664 41.6494 319.28 40.5661 319.28 39.6661C319.28 39.3328 319.397 39.0494 319.63 38.8161C319.864 38.6161 320.147 38.5161 320.48 38.5161H324.93C325.23 38.5161 325.48 38.5828 325.68 38.7161C325.914 38.8828 326.097 39.1661 326.23 39.5661C326.597 40.4328 327.147 41.1661 327.88 41.7661C328.614 42.3994 329.747 42.7161 331.28 42.7161C333.28 42.7161 334.747 42.2661 335.68 41.3661C336.614 40.4994 337.08 38.9661 337.08 36.7661V33.3661C335.28 35.4994 332.73 36.5661 329.43 36.5661C325.964 36.5661 323.347 35.5161 321.58 33.4161C319.847 31.3161 318.914 28.4494 318.78 24.8161L318.73 23.4661L318.78 22.1161C318.914 18.5494 319.864 15.6828 321.63 13.5161C323.397 11.3494 325.997 10.2661 329.43 10.2661C331.197 10.2661 332.747 10.5994 334.08 11.2661C335.414 11.9328 336.514 12.8328 337.38 13.9661V12.0161C337.38 11.6494 337.497 11.3494 337.73 11.1161C337.997 10.8828 338.297 10.7661 338.63 10.7661H342.73C343.064 10.7661 343.347 10.8828 343.58 11.1161C343.814 11.3494 343.93 11.6494 343.93 12.0161L343.98 36.1161C343.98 39.8161 342.947 42.6828 340.88 44.7161C338.814 46.7494 335.697 47.7661 331.53 47.7661ZM331.33 31.2661C333.197 31.2661 334.597 30.6661 335.53 29.4661C336.464 28.2661 336.98 26.7994 337.08 25.0661C337.114 24.7994 337.13 24.2661 337.13 23.4661C337.13 22.6661 337.114 22.1328 337.08 21.8661C336.98 20.1328 336.464 18.6661 335.53 17.4661C334.597 16.2661 333.197 15.6661 331.33 15.6661C327.73 15.6661 325.83 17.8661 325.63 22.2661L325.58 23.4661C325.58 28.6661 327.497 31.2661 331.33 31.2661ZM372.791 36.7661C369.758 36.7661 367.475 35.9828 365.941 34.4161C364.408 32.8161 363.641 30.4828 363.641 27.4161V16.1161H359.691C359.358 16.1161 359.075 15.9994 358.841 15.7661C358.608 15.5328 358.491 15.2494 358.491 14.9161V11.9661C358.491 11.6328 358.608 11.3494 358.841 11.1161C359.075 10.8828 359.358 10.7661 359.691 10.7661H363.641V2.46611C363.641 2.09944 363.758 1.81611 363.991 1.61611C364.225 1.38278 364.508 1.26611 364.841 1.26611H368.991C369.358 1.26611 369.641 1.38278 369.841 1.61611C370.075 1.81611 370.191 2.09944 370.191 2.46611V10.7661H376.441C376.775 10.7661 377.058 10.8828 377.291 11.1161C377.525 11.3494 377.641 11.6328 377.641 11.9661V14.9161C377.641 15.2494 377.525 15.5328 377.291 15.7661C377.058 15.9994 376.775 16.1161 376.441 16.1161H370.191V26.8661C370.191 28.2994 370.441 29.3828 370.941 30.1161C371.441 30.8494 372.258 31.2161 373.391 31.2161H376.891C377.258 31.2161 377.541 31.3328 377.741 31.5661C377.975 31.7661 378.091 32.0494 378.091 32.4161V35.5661C378.091 35.8994 377.975 36.1828 377.741 36.4161C377.541 36.6494 377.258 36.7661 376.891 36.7661H372.791ZM394.075 37.2661C390.141 37.2661 387.108 36.2661 384.975 34.2661C382.841 32.2661 381.691 29.4994 381.525 25.9661L381.475 23.7661L381.525 21.5661C381.691 18.0661 382.858 15.3161 385.025 13.3161C387.191 11.2828 390.208 10.2661 394.075 10.2661C397.908 10.2661 400.908 11.2828 403.075 13.3161C405.241 15.3161 406.408 18.0661 406.575 21.5661C406.608 21.9661 406.625 22.6994 406.625 23.7661C406.625 24.8328 406.608 25.5661 406.575 25.9661C406.408 29.4994 405.258 32.2661 403.125 34.2661C400.991 36.2661 397.975 37.2661 394.075 37.2661ZM394.075 32.2161C395.841 32.2161 397.191 31.6661 398.125 30.5661C399.091 29.4661 399.608 27.8494 399.675 25.7161C399.708 25.3828 399.725 24.7328 399.725 23.7661C399.725 22.7994 399.708 22.1494 399.675 21.8161C399.608 19.6828 399.091 18.0661 398.125 16.9661C397.158 15.8328 395.808 15.2661 394.075 15.2661C392.308 15.2661 390.941 15.8328 389.975 16.9661C389.008 18.0661 388.491 19.6828 388.425 21.8161L388.375 23.7661L388.425 25.7161C388.491 27.8494 389.008 29.4661 389.975 30.5661C390.941 31.6661 392.308 32.2161 394.075 32.2161ZM437.99 37.2661C434.524 37.2661 431.874 36.0828 430.04 33.7161V35.5661C430.04 35.8994 429.924 36.1828 429.69 36.4161C429.457 36.6494 429.157 36.7661 428.79 36.7661H424.79C424.457 36.7661 424.174 36.6494 423.94 36.4161C423.707 36.1828 423.59 35.8994 423.59 35.5661V2.46611C423.59 2.09944 423.707 1.81611 423.94 1.61611C424.174 1.38278 424.457 1.26611 424.79 1.26611H429.14C429.507 1.26611 429.79 1.38278 429.99 1.61611C430.224 1.81611 430.34 2.09944 430.34 2.46611V13.5661C432.207 11.3661 434.757 10.2661 437.99 10.2661C441.357 10.2661 443.94 11.3661 445.74 13.5661C447.574 15.7328 448.54 18.5828 448.64 22.1161C448.674 22.5161 448.69 23.0661 448.69 23.7661C448.69 24.4328 448.674 24.9828 448.64 25.4161C448.507 29.0161 447.54 31.8994 445.74 34.0661C443.94 36.1994 441.357 37.2661 437.99 37.2661ZM436.09 31.8661C439.657 31.8661 441.557 29.6661 441.79 25.2661C441.824 24.9328 441.84 24.4328 441.84 23.7661C441.84 23.0994 441.824 22.5994 441.79 22.2661C441.557 17.8661 439.657 15.6661 436.09 15.6661C434.257 15.6661 432.857 16.2494 431.89 17.4161C430.924 18.5828 430.407 19.9994 430.34 21.6661C430.307 22.0661 430.29 22.7161 430.29 23.6161C430.29 24.4828 430.307 25.1161 430.34 25.5161C430.407 27.2828 430.907 28.7828 431.84 30.0161C432.774 31.2494 434.19 31.8661 436.09 31.8661ZM465.503 37.2661C461.77 37.2661 458.803 36.1994 456.603 34.0661C454.436 31.9328 453.286 28.8994 453.153 24.9661L453.103 23.7161C453.103 19.5494 454.186 16.2661 456.353 13.8661C458.553 11.4661 461.586 10.2661 465.453 10.2661C469.42 10.2661 472.47 11.4661 474.603 13.8661C476.77 16.2661 477.853 19.4661 477.853 23.4661V24.5161C477.853 24.8494 477.736 25.1328 477.503 25.3661C477.27 25.5994 476.97 25.7161 476.603 25.7161H460.003V26.1161C460.07 27.9828 460.57 29.5328 461.503 30.7661C462.47 31.9661 463.786 32.5661 465.453 32.5661C467.353 32.5661 468.903 31.7994 470.103 30.2661C470.403 29.8994 470.636 29.6828 470.803 29.6161C470.97 29.5161 471.253 29.4661 471.653 29.4661H476.053C476.353 29.4661 476.603 29.5494 476.803 29.7161C477.036 29.8828 477.153 30.1161 477.153 30.4161C477.153 31.2161 476.67 32.1661 475.703 33.2661C474.77 34.3328 473.42 35.2661 471.653 36.0661C469.886 36.8661 467.836 37.2661 465.503 37.2661ZM470.953 21.4661V21.3661C470.953 19.3994 470.453 17.8328 469.453 16.6661C468.486 15.4661 467.153 14.8661 465.453 14.8661C463.753 14.8661 462.42 15.4661 461.453 16.6661C460.486 17.8328 460.003 19.3994 460.003 21.3661V21.4661H470.953ZM13.55 107.266C9.81667 107.266 6.85 106.199 4.65 104.066C2.48333 101.933 1.33333 98.8994 1.2 94.9661L1.15 93.7161C1.15 89.5494 2.23333 86.2661 4.4 83.8661C6.6 81.4661 9.63333 80.2661 13.5 80.2661C17.4667 80.2661 20.5167 81.4661 22.65 83.8661C24.8167 86.2661 25.9 89.4661 25.9 93.4661V94.5161C25.9 94.8494 25.7833 95.1328 25.55 95.3661C25.3167 95.5994 25.0167 95.7161 24.65 95.7161H8.05V96.1161C8.11667 97.9828 8.61667 99.5328 9.55 100.766C10.5167 101.966 11.8333 102.566 13.5 102.566C15.4 102.566 16.95 101.799 18.15 100.266C18.45 99.8994 18.6833 99.6828 18.85 99.6161C19.0167 99.5161 19.3 99.4661 19.7 99.4661H24.1C24.4 99.4661 24.65 99.5494 24.85 99.7161C25.0833 99.8828 25.2 100.116 25.2 100.416C25.2 101.216 24.7167 102.166 23.75 103.266C22.8167 104.333 21.4667 105.266 19.7 106.066C17.9333 106.866 15.8833 107.266 13.55 107.266ZM19 91.4661V91.3661C19 89.3994 18.5 87.8328 17.5 86.6661C16.5333 85.4661 15.2 84.8661 13.5 84.8661C11.8 84.8661 10.4667 85.4661 9.5 86.6661C8.53333 87.8328 8.05 89.3994 8.05 91.3661V91.4661H19ZM38.7563 107.266C37.0563 107.266 35.4896 106.933 34.0563 106.266C32.6563 105.566 31.5396 104.633 30.7063 103.466C29.9063 102.299 29.5063 101.016 29.5063 99.6161C29.5063 97.3494 30.4229 95.5161 32.2563 94.1161C34.0896 92.7161 36.6063 91.7661 39.8063 91.2661L46.6563 90.2661V89.2161C46.6563 87.7828 46.2896 86.6994 45.5563 85.9661C44.8229 85.2328 43.6563 84.8661 42.0563 84.8661C40.9563 84.8661 40.0729 85.0661 39.4063 85.4661C38.7396 85.8661 38.1896 86.2828 37.7563 86.7161C37.3563 87.1161 37.0896 87.3828 36.9563 87.5161C36.8229 87.9161 36.5729 88.1161 36.2063 88.1161H32.3063C32.0063 88.1161 31.7396 88.0161 31.5063 87.8161C31.3063 87.6161 31.2062 87.3494 31.2062 87.0161C31.2396 86.1828 31.6396 85.2494 32.4063 84.2161C33.2063 83.1494 34.4229 82.2328 36.0563 81.4661C37.6896 80.6661 39.7063 80.2661 42.1063 80.2661C46.0396 80.2661 48.9063 81.1494 50.7063 82.9161C52.5063 84.6828 53.4063 86.9994 53.4063 89.8661V105.566C53.4063 105.899 53.2896 106.183 53.0563 106.416C52.8563 106.649 52.5729 106.766 52.2063 106.766H48.0563C47.7229 106.766 47.4396 106.649 47.2063 106.416C46.9729 106.183 46.8563 105.899 46.8563 105.566V103.616C46.1229 104.683 45.0896 105.566 43.7563 106.266C42.4229 106.933 40.7563 107.266 38.7563 107.266ZM40.4563 102.466C42.2896 102.466 43.7896 101.866 44.9563 100.666C46.1229 99.4661 46.7063 97.7328 46.7063 95.4661V94.4661L41.7063 95.2661C37.8729 95.8661 35.9563 97.1494 35.9563 99.1161C35.9563 100.183 36.3896 101.016 37.2563 101.616C38.1563 102.183 39.2229 102.466 40.4563 102.466ZM69.7195 107.266C67.1862 107.266 65.0695 106.883 63.3695 106.116C61.6695 105.349 60.4029 104.466 59.5695 103.466C58.7695 102.433 58.3695 101.549 58.3695 100.816C58.3695 100.483 58.4695 100.216 58.6695 100.016C58.9029 99.8161 59.1695 99.7161 59.4695 99.7161H63.5695C63.8362 99.7161 64.0695 99.8494 64.2695 100.116C64.4362 100.249 64.8029 100.566 65.3695 101.066C65.9695 101.566 66.6362 101.966 67.3695 102.266C68.1362 102.533 68.9695 102.666 69.8695 102.666C71.2029 102.666 72.2862 102.416 73.1195 101.916C73.9529 101.383 74.3695 100.633 74.3695 99.6661C74.3695 98.9994 74.1695 98.4661 73.7695 98.0661C73.4029 97.6328 72.7195 97.2494 71.7195 96.9161C70.7529 96.5494 69.2862 96.1494 67.3195 95.7161C64.4862 95.1161 62.3862 94.1994 61.0195 92.9661C59.6862 91.7328 59.0195 90.0994 59.0195 88.0661C59.0195 86.7328 59.4195 85.4828 60.2195 84.3161C61.0195 83.1161 62.2029 82.1494 63.7695 81.4161C65.3695 80.6494 67.2695 80.2661 69.4695 80.2661C71.7362 80.2661 73.6862 80.6328 75.3195 81.3661C76.9529 82.0661 78.1862 82.9161 79.0195 83.9161C79.8862 84.9161 80.3195 85.7994 80.3195 86.5661C80.3195 86.8661 80.2029 87.1328 79.9695 87.3661C79.7695 87.5661 79.5195 87.6661 79.2195 87.6661H75.4695C75.1029 87.6661 74.8195 87.5328 74.6195 87.2661C74.3862 87.0994 74.0029 86.7994 73.4695 86.3661C72.9695 85.8994 72.4029 85.5328 71.7695 85.2661C71.1362 84.9994 70.3695 84.8661 69.4695 84.8661C68.2362 84.8661 67.2862 85.1328 66.6195 85.6661C65.9529 86.1994 65.6195 86.8994 65.6195 87.7661C65.6195 88.3661 65.7695 88.8661 66.0695 89.2661C66.4029 89.6661 67.0529 90.0494 68.0195 90.4161C68.9862 90.7494 70.4362 91.0994 72.3695 91.4661C78.3695 92.6328 81.3695 95.2494 81.3695 99.3161C81.3695 101.683 80.3362 103.599 78.2695 105.066C76.2362 106.533 73.3862 107.266 69.7195 107.266ZM90.2031 116.266C89.9365 116.266 89.6865 116.166 89.4531 115.966C89.2531 115.766 89.1531 115.533 89.1531 115.266C89.1531 115.033 89.2198 114.766 89.3531 114.466L93.3031 105.216L83.7031 82.5661C83.5698 82.2661 83.5031 82.0328 83.5031 81.8661C83.5365 81.5661 83.6531 81.3161 83.8531 81.1161C84.0531 80.8828 84.3031 80.7661 84.6031 80.7661H88.7531C89.3531 80.7661 89.7865 81.0828 90.0531 81.7161L96.7031 98.0161L103.453 81.7161C103.786 81.0828 104.253 80.7661 104.853 80.7661H108.903C109.203 80.7661 109.453 80.8661 109.653 81.0661C109.853 81.2661 109.953 81.4994 109.953 81.7661C109.953 81.9994 109.886 82.2661 109.753 82.5661L95.6031 115.316C95.3365 115.949 94.8698 116.266 94.2031 116.266H90.2031ZM130.298 106.766C129.465 106.766 128.915 106.349 128.648 105.516L121.498 82.3161C121.465 82.2161 121.448 82.0661 121.448 81.8661C121.448 81.5661 121.548 81.3161 121.748 81.1161C121.948 80.8828 122.198 80.7661 122.498 80.7661H126.298C126.632 80.7661 126.915 80.8661 127.148 81.0661C127.415 81.2661 127.582 81.4828 127.648 81.7161L132.498 98.1661L137.648 81.8661C137.748 81.5661 137.915 81.3161 138.148 81.1161C138.415 80.8828 138.748 80.7661 139.148 80.7661H141.698C142.098 80.7661 142.415 80.8828 142.648 81.1161C142.915 81.3161 143.082 81.5661 143.148 81.8661L148.348 98.1661L153.198 81.7161C153.265 81.4828 153.415 81.2661 153.648 81.0661C153.882 80.8661 154.182 80.7661 154.548 80.7661H158.298C158.598 80.7661 158.848 80.8828 159.048 81.1161C159.282 81.3161 159.398 81.5661 159.398 81.8661L159.298 82.3161L152.148 105.516C152.015 105.916 151.815 106.233 151.548 106.466C151.315 106.666 150.982 106.766 150.548 106.766H147.248C146.382 106.766 145.832 106.349 145.598 105.516L140.448 89.8161L135.248 105.516C134.982 106.349 134.415 106.766 133.548 106.766H130.298ZM165.263 76.5161C164.93 76.5161 164.646 76.3994 164.413 76.1661C164.18 75.9328 164.063 75.6494 164.063 75.3161V71.6661C164.063 71.2994 164.18 70.9994 164.413 70.7661C164.646 70.5328 164.93 70.4161 165.263 70.4161H169.863C170.23 70.4161 170.53 70.5328 170.763 70.7661C170.996 70.9994 171.113 71.2994 171.113 71.6661V75.3161C171.113 75.6494 170.98 75.9328 170.713 76.1661C170.48 76.3994 170.196 76.5161 169.863 76.5161H165.263ZM165.463 106.766C165.13 106.766 164.846 106.649 164.613 106.416C164.38 106.183 164.263 105.899 164.263 105.566V81.9661C164.263 81.5994 164.38 81.3161 164.613 81.1161C164.846 80.8828 165.13 80.7661 165.463 80.7661H169.713C170.046 80.7661 170.33 80.8828 170.563 81.1161C170.796 81.3494 170.913 81.6328 170.913 81.9661V105.566C170.913 105.899 170.796 106.183 170.563 106.416C170.33 106.649 170.046 106.766 169.713 106.766H165.463ZM189.295 106.766C186.262 106.766 183.979 105.983 182.445 104.416C180.912 102.816 180.145 100.483 180.145 97.4161V86.1161H176.195C175.862 86.1161 175.579 85.9994 175.345 85.7661C175.112 85.5328 174.995 85.2494 174.995 84.9161V81.9661C174.995 81.6328 175.112 81.3494 175.345 81.1161C175.579 80.8828 175.862 80.7661 176.195 80.7661H180.145V72.4661C180.145 72.0994 180.262 71.8161 180.495 71.6161C180.729 71.3828 181.012 71.2661 181.345 71.2661H185.495C185.862 71.2661 186.145 71.3828 186.345 71.6161C186.579 71.8161 186.695 72.0994 186.695 72.4661V80.7661H192.945C193.279 80.7661 193.562 80.8828 193.795 81.1161C194.029 81.3494 194.145 81.6328 194.145 81.9661V84.9161C194.145 85.2494 194.029 85.5328 193.795 85.7661C193.562 85.9994 193.279 86.1161 192.945 86.1161H186.695V96.8661C186.695 98.2994 186.945 99.3828 187.445 100.116C187.945 100.849 188.762 101.216 189.895 101.216H193.395C193.762 101.216 194.045 101.333 194.245 101.566C194.479 101.766 194.595 102.049 194.595 102.416V105.566C194.595 105.899 194.479 106.183 194.245 106.416C194.045 106.649 193.762 106.766 193.395 106.766H189.295ZM200.279 106.766C199.945 106.766 199.662 106.649 199.429 106.416C199.195 106.183 199.079 105.899 199.079 105.566V72.4661C199.079 72.0994 199.195 71.8161 199.429 71.6161C199.662 71.3828 199.945 71.2661 200.279 71.2661H204.829C205.195 71.2661 205.479 71.3828 205.679 71.6161C205.912 71.8161 206.029 72.0994 206.029 72.4661V83.8661C208.029 81.4661 210.712 80.2661 214.079 80.2661C217.145 80.2661 219.595 81.2828 221.429 83.3161C223.262 85.3161 224.179 88.0494 224.179 91.5161V105.566C224.179 105.899 224.062 106.183 223.829 106.416C223.629 106.649 223.345 106.766 222.979 106.766H218.429C218.062 106.766 217.762 106.649 217.529 106.416C217.295 106.183 217.179 105.899 217.179 105.566V91.8161C217.179 89.8828 216.695 88.3828 215.729 87.3161C214.795 86.2161 213.445 85.6661 211.679 85.6661C209.979 85.6661 208.612 86.2161 207.579 87.3161C206.545 88.4161 206.029 89.9161 206.029 91.8161V105.566C206.029 105.899 205.912 106.183 205.679 106.416C205.479 106.649 205.195 106.766 204.829 106.766H200.279ZM242.371 106.766C242.037 106.766 241.737 106.649 241.471 106.416C241.237 106.149 241.121 105.849 241.121 105.516V73.0161C241.121 72.6494 241.237 72.3494 241.471 72.1161C241.737 71.8828 242.037 71.7661 242.371 71.7661H249.371C249.737 71.7661 250.037 71.8828 250.271 72.1161C250.504 72.3494 250.621 72.6494 250.621 73.0161V98.9161H265.621C265.987 98.9161 266.287 99.0494 266.521 99.3161C266.787 99.5494 266.921 99.8494 266.921 100.216V105.516C266.921 105.883 266.787 106.183 266.521 106.416C266.287 106.649 265.987 106.766 265.621 106.766H242.371ZM278.401 107.266C276.635 107.266 275.018 106.933 273.551 106.266C272.118 105.566 270.985 104.616 270.151 103.416C269.351 102.216 268.951 100.899 268.951 99.4661C268.951 97.1994 269.885 95.3661 271.751 93.9661C273.651 92.5328 276.251 91.5494 279.551 91.0161L285.751 90.0661V89.4661C285.751 88.2328 285.501 87.3328 285.001 86.7661C284.501 86.1994 283.651 85.9161 282.451 85.9161C281.785 85.9161 281.218 86.0328 280.751 86.2661C280.318 86.4994 279.818 86.8494 279.251 87.3161C278.818 87.6828 278.435 87.9494 278.101 88.1161C277.968 88.3494 277.801 88.4661 277.601 88.4661H271.801C271.468 88.4661 271.185 88.3661 270.951 88.1661C270.751 87.9328 270.668 87.6661 270.701 87.3661C270.735 86.4661 271.185 85.4661 272.051 84.3661C272.918 83.2328 274.235 82.2661 276.001 81.4661C277.768 80.6661 279.951 80.2661 282.551 80.2661C286.685 80.2661 289.751 81.1828 291.751 83.0161C293.751 84.8161 294.751 87.2661 294.751 90.3661V105.516C294.751 105.849 294.635 106.149 294.401 106.416C294.168 106.649 293.868 106.766 293.501 106.766H287.351C287.018 106.766 286.718 106.649 286.451 106.416C286.218 106.149 286.101 105.849 286.101 105.516V103.766C285.368 104.799 284.351 105.649 283.051 106.316C281.751 106.949 280.201 107.266 278.401 107.266ZM280.901 101.366C282.368 101.366 283.551 100.883 284.451 99.9161C285.385 98.9494 285.851 97.5494 285.851 95.7161V95.1161L281.701 95.8161C278.901 96.3494 277.501 97.3494 277.501 98.8161C277.501 99.5828 277.818 100.199 278.451 100.666C279.118 101.133 279.935 101.366 280.901 101.366ZM311.09 107.266C308.357 107.266 306.073 106.883 304.24 106.116C302.407 105.349 301.04 104.433 300.14 103.366C299.273 102.299 298.84 101.333 298.84 100.466C298.84 100.133 298.957 99.8661 299.19 99.6661C299.457 99.4328 299.74 99.3161 300.04 99.3161H306.09C306.29 99.3161 306.457 99.3828 306.59 99.5161C307.157 99.8828 307.473 100.099 307.54 100.166C308.173 100.633 308.757 100.999 309.29 101.266C309.857 101.499 310.523 101.616 311.29 101.616C312.19 101.616 312.923 101.449 313.49 101.116C314.09 100.749 314.39 100.249 314.39 99.6161C314.39 99.0828 314.223 98.6494 313.89 98.3161C313.59 97.9828 312.99 97.6661 312.09 97.3661C311.223 97.0328 309.89 96.6994 308.09 96.3661C302.323 95.1994 299.44 92.5328 299.44 88.3661C299.44 86.9994 299.873 85.6994 300.74 84.4661C301.64 83.1994 302.94 82.1828 304.64 81.4161C306.373 80.6494 308.44 80.2661 310.84 80.2661C313.273 80.2661 315.373 80.6494 317.14 81.4161C318.94 82.1494 320.307 83.0494 321.24 84.1161C322.173 85.1494 322.64 86.0994 322.64 86.9661C322.64 87.2661 322.523 87.5328 322.29 87.7661C322.09 87.9994 321.84 88.1161 321.54 88.1161H316.04C315.74 88.1161 315.507 88.0494 315.34 87.9161C314.94 87.7161 314.54 87.4661 314.14 87.1661C313.54 86.7661 313.007 86.4661 312.54 86.2661C312.107 86.0328 311.54 85.9161 310.84 85.9161C310.007 85.9161 309.357 86.0994 308.89 86.4661C308.423 86.8328 308.19 87.2994 308.19 87.8661C308.19 88.3661 308.323 88.7828 308.59 89.1161C308.89 89.4161 309.473 89.7161 310.34 90.0161C311.24 90.3161 312.59 90.6328 314.39 90.9661C317.657 91.5328 320.023 92.5494 321.49 94.0161C322.99 95.4494 323.74 97.1328 323.74 99.0661C323.74 101.566 322.623 103.566 320.39 105.066C318.19 106.533 315.09 107.266 311.09 107.266ZM329.322 106.766C328.955 106.766 328.639 106.649 328.372 106.416C328.139 106.183 328.022 105.883 328.022 105.516V72.5161C328.022 72.1494 328.139 71.8494 328.372 71.6161C328.639 71.3828 328.955 71.2661 329.322 71.2661H335.572C335.939 71.2661 336.239 71.3828 336.472 71.6161C336.705 71.8494 336.822 72.1494 336.822 72.5161V105.516C336.822 105.849 336.705 106.149 336.472 106.416C336.239 106.649 335.939 106.766 335.572 106.766H329.322ZM354.724 107.266C350.657 107.266 347.457 106.183 345.124 104.016C342.79 101.816 341.59 98.6328 341.524 94.4661V92.9161C341.657 88.9494 342.89 85.8494 345.224 83.6161C347.557 81.3828 350.707 80.2661 354.674 80.2661C357.54 80.2661 359.957 80.8494 361.924 82.0161C363.924 83.1494 365.407 84.7328 366.374 86.7661C367.374 88.7661 367.874 91.0494 367.874 93.6161V94.8661C367.874 95.2328 367.74 95.5494 367.474 95.8161C367.24 96.0494 366.94 96.1661 366.574 96.1661H350.724V96.4661C350.757 97.9661 351.107 99.1828 351.774 100.116C352.44 101.016 353.39 101.466 354.624 101.466C355.424 101.466 356.057 101.316 356.524 101.016C357.024 100.683 357.49 100.266 357.924 99.7661C358.224 99.4328 358.457 99.2328 358.624 99.1661C358.824 99.0661 359.124 99.0161 359.524 99.0161H366.074C366.374 99.0161 366.624 99.1161 366.824 99.3161C367.057 99.4828 367.174 99.6994 367.174 99.9661C367.174 100.833 366.674 101.849 365.674 103.016C364.707 104.183 363.274 105.183 361.374 106.016C359.507 106.849 357.29 107.266 354.724 107.266ZM358.674 91.0661V90.9661C358.674 89.3661 358.324 88.1328 357.624 87.2661C356.924 86.3661 355.94 85.9161 354.674 85.9161C353.407 85.9161 352.424 86.3661 351.724 87.2661C351.057 88.1328 350.724 89.3661 350.724 90.9661V91.0661H358.674ZM383.258 107.266C380.524 107.266 378.241 106.883 376.408 106.116C374.574 105.349 373.208 104.433 372.308 103.366C371.441 102.299 371.008 101.333 371.008 100.466C371.008 100.133 371.124 99.8661 371.358 99.6661C371.624 99.4328 371.908 99.3161 372.208 99.3161H378.258C378.458 99.3161 378.624 99.3828 378.758 99.5161C379.324 99.8828 379.641 100.099 379.708 100.166C380.341 100.633 380.924 100.999 381.458 101.266C382.024 101.499 382.691 101.616 383.458 101.616C384.358 101.616 385.091 101.449 385.658 101.116C386.258 100.749 386.558 100.249 386.558 99.6161C386.558 99.0828 386.391 98.6494 386.058 98.3161C385.758 97.9828 385.158 97.6661 384.258 97.3661C383.391 97.0328 382.058 96.6994 380.258 96.3661C374.491 95.1994 371.608 92.5328 371.608 88.3661C371.608 86.9994 372.041 85.6994 372.908 84.4661C373.808 83.1994 375.108 82.1828 376.808 81.4161C378.541 80.6494 380.608 80.2661 383.008 80.2661C385.441 80.2661 387.541 80.6494 389.308 81.4161C391.108 82.1494 392.474 83.0494 393.408 84.1161C394.341 85.1494 394.808 86.0994 394.808 86.9661C394.808 87.2661 394.691 87.5328 394.458 87.7661C394.258 87.9994 394.008 88.1161 393.708 88.1161H388.208C387.908 88.1161 387.674 88.0494 387.508 87.9161C387.108 87.7161 386.708 87.4661 386.308 87.1661C385.708 86.7661 385.174 86.4661 384.708 86.2661C384.274 86.0328 383.708 85.9161 383.008 85.9161C382.174 85.9161 381.524 86.0994 381.058 86.4661C380.591 86.8328 380.358 87.2994 380.358 87.8661C380.358 88.3661 380.491 88.7828 380.758 89.1161C381.058 89.4161 381.641 89.7161 382.508 90.0161C383.408 90.3161 384.758 90.6328 386.558 90.9661C389.824 91.5328 392.191 92.5494 393.658 94.0161C395.158 95.4494 395.908 97.1328 395.908 99.0661C395.908 101.566 394.791 103.566 392.558 105.066C390.358 106.533 387.258 107.266 383.258 107.266ZM408.054 106.766C407.488 106.766 407.021 106.633 406.654 106.366C406.321 106.066 406.088 105.699 405.954 105.266L395.854 73.2661L395.754 72.8161C395.754 72.5494 395.854 72.3161 396.054 72.1161C396.288 71.8828 396.554 71.7661 396.854 71.7661H403.404C403.904 71.7661 404.304 71.9161 404.604 72.2161C404.938 72.4828 405.154 72.7828 405.254 73.1161L412.054 95.7161L418.904 73.1161C419.004 72.7494 419.204 72.4328 419.504 72.1661C419.838 71.8994 420.254 71.7661 420.754 71.7661H427.304C427.604 71.7661 427.854 71.8828 428.054 72.1161C428.254 72.3161 428.354 72.5494 428.354 72.8161C428.354 72.9828 428.338 73.1328 428.304 73.2661L418.154 105.266C418.054 105.699 417.821 106.066 417.454 106.366C417.121 106.633 416.671 106.766 416.104 106.766H408.054ZM434.168 106.766C433.834 106.766 433.534 106.649 433.268 106.416C433.034 106.149 432.918 105.849 432.918 105.516V73.0661C432.918 72.6994 433.034 72.3994 433.268 72.1661C433.501 71.8994 433.801 71.7661 434.168 71.7661H448.318C452.651 71.7661 456.051 72.7494 458.518 74.7161C460.984 76.6828 462.218 79.5661 462.218 83.3661C462.218 87.1661 460.984 90.0161 458.518 91.9161C456.051 93.7828 452.651 94.7161 448.318 94.7161H442.618V105.516C442.618 105.849 442.501 106.149 442.268 106.416C442.034 106.649 441.734 106.766 441.368 106.766H434.168ZM448.068 87.5661C449.434 87.5661 450.501 87.2161 451.268 86.5161C452.068 85.7828 452.468 84.7161 452.468 83.3161C452.468 82.0161 452.101 80.9661 451.368 80.1661C450.668 79.3661 449.568 78.9661 448.068 78.9661H442.468V87.5661H448.068ZM468.103 106.766C467.77 106.766 467.47 106.649 467.203 106.416C466.97 106.149 466.853 105.849 466.853 105.516V73.0661C466.853 72.6994 466.97 72.3994 467.203 72.1661C467.436 71.8994 467.736 71.7661 468.103 71.7661H473.753C474.52 71.7661 475.086 72.0828 475.453 72.7161L487.253 91.3661V73.0661C487.253 72.6994 487.37 72.3994 487.603 72.1661C487.836 71.8994 488.136 71.7661 488.503 71.7661H494.853C495.22 71.7661 495.52 71.8994 495.753 72.1661C495.986 72.3994 496.103 72.6994 496.103 73.0661V105.466C496.103 105.833 495.986 106.149 495.753 106.416C495.52 106.649 495.22 106.766 494.853 106.766H489.203C488.436 106.766 487.87 106.449 487.503 105.816L475.753 87.9161V105.516C475.753 105.883 475.62 106.183 475.353 106.416C475.12 106.649 474.82 106.766 474.453 106.766H468.103ZM503.242 106.766C502.875 106.766 502.558 106.649 502.292 106.416C502.058 106.183 501.942 105.883 501.942 105.516V98.9161C501.942 98.5494 502.058 98.2494 502.292 98.0161C502.558 97.7494 502.875 97.6161 503.242 97.6161H509.842C510.208 97.6161 510.508 97.7494 510.742 98.0161C510.975 98.2494 511.092 98.5494 511.092 98.9161V105.516C511.092 105.849 510.975 106.149 510.742 106.416C510.508 106.649 510.208 106.766 509.842 106.766H503.242Z" fill="#0B132A"/>
</svg>
